<?xml version="1.0" encoding="utf-8"?><svg fill="none" viewBox="0 0 100 100" width="100" height="100" xmlns="http://www.w3.org/2000/svg"><g clip-path="url(#aea)"><path d="m14.554 35.23-8.92 8.92L16.9 50.254l6.573-6.104 1.409-4.695-10.329-4.225Z" fill="#2FC4A7"/><path d="m14.554 35.23-8.92 8.92L16.9 50.254l6.573-6.104 1.409-4.695-10.329-4.225Z" fill="#fff" fill-opacity=".6"/><path d="M63.38 10.347 42.723 8l10.798 11.268 9.86-8.92Z" fill="#2FC4A7"/><path d="M63.38 10.347 42.723 8l10.798 11.268 9.86-8.92Z" fill="#fff" fill-opacity=".6"/><path d="m80.751 32.413-5.164-13.145 18.31 12.206-13.146.94Z" fill="#2FC4A7"/><path d="m80.751 32.413-5.164-13.145 18.31 12.206-13.146.94Z" fill="#fff" fill-opacity=".6"/><path d="m65.258 44.15 9.39-8.45 4.695 3.286 7.511 2.817-10.328 6.573-11.268-4.226Z" fill="#2FC4A7"/><path d="m65.258 44.15 9.39-8.45 4.695 3.286 7.511 2.817-10.328 6.573-11.268-4.226Z" fill="#fff" fill-opacity=".6"/><path d="m30.516 34.291 7.512-6.573 15.963 1.409 6.103 4.225-9.39 11.737-15.023 2.348-5.165-13.146Z" fill="#2FC4A7"/><path d="m30.516 34.291 7.512-6.573 15.963 1.409 6.103 4.225-9.39 11.737-15.023 2.348-5.165-13.146Z" fill="#fff" fill-opacity=".6"/><path d="M28.639 15.981 42.722 8l10.798 8.92 2.347 12.207H36.15L28.64 15.98Z" fill="#898989"/><path d="M28.639 15.981 42.722 8l10.798 8.92 2.347 12.207H36.15L28.64 15.98Z" fill="#fff" fill-opacity=".4"/><path d="m30.516 34.291-7.98 4.225v5.634l-2.818 15.493-2.817 22.066 11.738-5.634 1.408-13.615 6.573-14.554-6.104-13.615Z" fill="#898989"/><path d="m30.516 34.291-7.98 4.225v5.634l-2.818 15.493-2.817 22.066 11.738-5.634 1.408-13.615 6.573-14.554-6.104-13.615Z" fill="#fff" fill-opacity=".4"/><path d="M39.437 29.127 28.638 15.98l-6.103 22.535 7.981-4.225 8.92-5.164Z" fill="#898989"/><path d="M39.437 29.127 28.638 15.98l-6.103 22.535 7.981-4.225 8.92-5.164Z" fill="#fff" fill-opacity=".6"/><path d="m63.38 10.347-9.859 6.573.47 12.207 16.431 11.737 4.226-4.695L63.38 10.347Z" fill="#898989"/><path d="m63.38 10.347-9.859 6.573.47 12.207 16.431 11.737 4.226-4.695L63.38 10.347Z" fill="#fff" fill-opacity=".6"/><path d="M16.432 47.437 5.634 44.15 0 77.014l16.901 4.695 4.226-21.596-4.695-12.676Z" fill="#898989"/><path d="M16.432 47.437 5.634 44.15 0 77.014l16.901 4.695 4.226-21.596-4.695-12.676Z" fill="#fff" fill-opacity=".2"/><path d="m68.075 82.178-.47-38.028 8.92 4.226 4.696 35.21-13.146-1.408Z" fill="#898989"/><path d="m68.075 82.178-.47-38.028 8.92 4.226 4.696 35.21-13.146-1.408Z" fill="#fff" fill-opacity=".2"/><path d="m75.587 19.268-7.042 3.286 6.103 13.615 4.695 2.817 1.408-6.573-5.164-13.145Z" fill="#898989"/><path d="m75.587 19.268-7.042 3.286 6.103 13.615 4.695 2.817 1.408-6.573-5.164-13.145Z" fill="#fff" fill-opacity=".2"/><path d="m49.765 44.15 12.207 13.146-4.226 9.859L43.662 53.54l-8.92 5.164-3.756 20.658-4.225-2.348 1.878-14.554 7.511-15.493 13.615-2.817Z" fill="#898989"/><path d="m49.765 44.15 12.207 13.146-4.226 9.859L43.662 53.54l-8.92 5.164-3.756 20.658-4.225-2.348 1.878-14.554 7.511-15.493 13.615-2.817Z" fill="#fff" fill-opacity=".2"/><path d="m22.535 44.15-6.103 3.287 4.695 12.676 1.408-15.963ZM60.094 33.352 49.765 44.15l12.207 13.146 6.103-1.878-.47-11.268 2.817-3.286-10.328-7.512ZM86.385 41.803l-9.86 6.573 4.696 35.21 9.39-1.877-4.226-39.906Z" fill="#898989"/><path d="m68.075 55.418-6.103 1.878-4.225 9.859 1.877 15.962 8.451-.939v-26.76Z" fill="#898989"/><path d="m68.075 55.418-6.103 1.878-4.225 9.859 1.877 15.962 8.451-.939v-26.76Z" fill="#000" fill-opacity=".2"/><path d="m79.343 38.986 1.408-6.573 13.146-.939 4.225 17.84L100 76.545l-9.39 5.165-4.225-39.906-7.042-2.817Z" fill="#898989"/><path d="m79.343 38.986 1.408-6.573 13.146-.939 4.225 17.84L100 76.545l-9.39 5.165-4.225-39.906-7.042-2.817Z" fill="#000" fill-opacity=".2"/><path d="M69.101 16.752c.084 1.88-.63 3.5-1.263 3.7l2.593 6.56c1.068-.383 2.141-.145 3.241.883l-.002-.004c-.967-1.794-1.301-2.413-2.38-2.577 1.172-.4 1.431-1.393 2.658-1.709-.878-.082-1.5-.025-3.007.405.41-.616.707-.851 1.308-1.149-1.13.26-1.49.285-2.253 1.102.945-1.264 1.327-2.09 1.684-4.15-.934 1.533-1.065 1.344-2.199 2.19.687-1.427.637-1.872.585-2.676-.273.652-.7 1.175-.983 1.186.133-.797.316-1.99.018-3.76Z" fill="#2FC4A7"/><path d="M69.101 16.752c.084 1.88-.63 3.5-1.263 3.7l2.593 6.56c1.068-.383 2.141-.145 3.241.883l-.002-.004c-.967-1.794-1.301-2.413-2.38-2.577 1.172-.4 1.431-1.393 2.658-1.709-.878-.082-1.5-.025-3.007.405.41-.616.707-.851 1.308-1.149-1.13.26-1.49.285-2.253 1.102.945-1.264 1.327-2.09 1.684-4.15-.934 1.533-1.065 1.344-2.199 2.19.687-1.427.637-1.872.585-2.676-.273.652-.7 1.175-.983 1.186.133-.797.316-1.99.018-3.76Z" fill="#000" fill-opacity=".2"/><path d="M46.386 24.963c-1.368 1.02-2.704 3.187-2.455 4.13h-4.72c-.545-1.037-1.439-2.29-3.113-2.967.854-.035 2.563-.104 3.113.824-.44-1.767-.744-1.83-1.278-3.617.598 1.094 1.78 1.066 2.406 3.287.178-.905.161-1.432 0-2.393.512 1.627.718 2.11.614 3.594.304-1.99.649-2.983 1.872-4.686-.5 2.137-.287 2.194-.183 4.178.578-1.75.92-1.954 1.516-2.368-.289.747-.392 1.617-.227 1.991.477-.652 1.03-1.295 2.455-1.973Z" fill="#2FC4A7"/><path d="M46.386 24.963c-1.368 1.02-2.704 3.187-2.455 4.13h-4.72c-.545-1.037-1.439-2.29-3.113-2.967.854-.035 2.563-.104 3.113.824-.44-1.767-.744-1.83-1.278-3.617.598 1.094 1.78 1.066 2.406 3.287.178-.905.161-1.432 0-2.393.512 1.627.718 2.11.614 3.594.304-1.99.649-2.983 1.872-4.686-.5 2.137-.287 2.194-.183 4.178.578-1.75.92-1.954 1.516-2.368-.289.747-.392 1.617-.227 1.991.477-.652 1.03-1.295 2.455-1.973Z" fill="#000" fill-opacity=".4"/><path d="M45 80H30.5l4-21.5 9-5L58 67l2 16-15-3Z" fill="#898989"/><path d="M45 80H30.5l4-21.5 9-5L58 67l2 16-15-3Z" fill="#000" fill-opacity=".6"/><path d="M46.233 80.352 34 80l3.964-15.085L44.33 61l10.255 9.61L56 82l-9.767-1.648Z" fill="#141414"/><path d="M26.5 36.5C28 45 39 73 58.5 73c15.824 0 22.5-6 30-14.5M21 59c.5 7 4.203 20.5 17.5 20.5 13.5 0 26-18.5 29.5-28" stroke="#2FC4A7"/><path d="M26.5 36.5C28 45 39 73 58.5 73c15.824 0 22.5-6 30-14.5M21 59c.5 7 4.203 20.5 17.5 20.5 13.5 0 26-18.5 29.5-28" stroke="#000" stroke-opacity=".4"/><path d="M74 73c-.247-1.188.236-2.431.502-2.692.47.373 1.675 1.192 1.998 2.192.407 1.26-.337 1.922-.5 2.5-.722-.315-1.752-.812-2-2Z" fill="#2FC4A7"/><path d="M74 73c-.247-1.188.236-2.431.502-2.692.47.373 1.675 1.192 1.998 2.192.407 1.26-.337 1.922-.5 2.5-.722-.315-1.752-.812-2-2Z" fill="#000" fill-opacity=".4"/><path d="M71.28 68.543c.586.823.554 2.026.404 2.354-.527-.078-1.832-.17-2.426-.81-.75-.807-.307-1.67-.346-2.202.728-.083 1.78-.165 2.368.658Z" fill="#2FC4A7"/><path d="M71.28 68.543c.586.823.554 2.026.404 2.354-.527-.078-1.832-.17-2.426-.81-.75-.807-.307-1.67-.346-2.202.728-.083 1.78-.165 2.368.658Z" fill="#000" fill-opacity=".4"/><path d="M46.016 81.03c-.402 1.146-1.459 1.96-1.822 2.046-.21-.563-.817-1.887-.576-2.91.303-1.29 1.443-1.755 1.882-2.166.455.643.919 1.886.516 3.03Z" fill="#2FC4A7"/><path d="M46.016 81.03c-.402 1.146-1.459 1.96-1.822 2.046-.21-.563-.817-1.887-.576-2.91.303-1.29 1.443-1.755 1.882-2.166.455.643.919 1.886.516 3.03Z" fill="#000" fill-opacity=".4"/><path d="M50.587 77.86c.093 1.007-.54 2.03-.835 2.238-.416-.332-1.498-1.067-1.69-1.92-.241-1.073.575-1.598.809-2.076.67.293 1.622.752 1.716 1.758Z" fill="#2FC4A7"/><path d="M50.587 77.86c.093 1.007-.54 2.03-.835 2.238-.416-.332-1.498-1.067-1.69-1.92-.241-1.073.575-1.598.809-2.076.67.293 1.622.752 1.716 1.758Z" fill="#000" fill-opacity=".4"/><path d="m68 79-14 3 6.5 8 13-1.078L78 83l-10-4Z" fill="#2FC4A7"/><path d="m68 79-14 3 6.5 8 13-1.078L78 83l-10-4Z" fill="#fff" fill-opacity=".6"/><path d="m59.5 93-.5-4.5 18-2-3 4.5-14.5 2Z" fill="#898989"/><path d="m59.5 93-.5-4.5 18-2-3 4.5-14.5 2Z" fill="#fff" fill-opacity=".2"/><path d="M51.5 87.5 54 82l7 6.32L59.5 93l-8-5.5Z" fill="#898989"/><path d="M51.5 87.5 54 82l7 6.32L59.5 93l-8-5.5Z" fill="#fff" fill-opacity=".4"/><path d="m74 91-1-4 5-4 2 5.053L74 91Z" fill="#898989"/><path d="M37.019 73.47c-2.247 2.135-3.95 6.66-3.519 8.53h-14c-.656-3.208-2.787-7.926-5.753-9.53 4.05.347 5.429.765 7.229 4.057-.752-3.5.539-5.353-.414-8.89 1.178 2.165 1.827 3.832 2.93 8.23.502-1.795.529-2.84.292-4.743.926 3.221 1.318 4.18.909 7.119.91-3.944 1.788-5.914 4.68-9.298-1.357 4.24-.897 4.35-.911 8.282 1.224-1.895 1.409-3.783 2.767-4.608-.726 1.482-.21 3.112.109 3.853 1.126-1.294 3.487-2.951 5.68-3.002Z" fill="#2FC4A7"/><path d="M37.019 73.47c-2.247 2.135-3.95 6.66-3.519 8.53h-14c-.656-3.208-2.787-7.926-5.753-9.53 4.05.347 5.429.765 7.229 4.057-.752-3.5.539-5.353-.414-8.89 1.178 2.165 1.827 3.832 2.93 8.23.502-1.795.529-2.84.292-4.743.926 3.221 1.318 4.18.909 7.119.91-3.944 1.788-5.914 4.68-9.298-1.357 4.24-.897 4.35-.911 8.282 1.224-1.895 1.409-3.783 2.767-4.608-.726 1.482-.21 3.112.109 3.853 1.126-1.294 3.487-2.951 5.68-3.002Z" fill="#000" fill-opacity=".6"/><path d="M8.522 77.258C9.86 79.598 10.626 83.625 10 85h11.5c0-2.538-.169-4.418 2.549-7.443-1.841.817-3.11.91-4.67 4.12-.319-1.579-.238-2.423.197-3.88-1.262 2.318-1.754 2.974-1.647 5.444-.506-3.415-1.184-5.242-3.738-8.768.925 3.778.451 3.736.06 6.89-1.033-1.864-1.024-3.428-2.3-4.473.574 1.392-.113 2.552-.508 3.055-.997-1.355-1.455-1.452-2.921-2.687Z" fill="#2FC4A7"/><path d="M8.522 77.258C9.86 79.598 10.626 83.625 10 85h11.5c0-2.538-.169-4.418 2.549-7.443-1.841.817-3.11.91-4.67 4.12-.319-1.579-.238-2.423.197-3.88-1.262 2.318-1.754 2.974-1.647 5.444-.506-3.415-1.184-5.242-3.738-8.768.925 3.778.451 3.736.06 6.89-1.033-1.864-1.024-3.428-2.3-4.473.574 1.392-.113 2.552-.508 3.055-.997-1.355-1.455-1.452-2.921-2.687Z" fill="#000" fill-opacity=".4"/></g><defs><clipPath id="aea"><path fill="#fff" d="M0 0h100v100H0z"/></clipPath></defs></svg>