<svg width="100" height="100" viewBox="0 0 100 100" fill="none" xmlns="http://www.w3.org/2000/svg">
<g clip-path="url(#clip0_4597_6827)">
<ellipse cx="49.8613" cy="78.9798" rx="33.2644" ry="7.50163" fill="#7445B8"/>
<ellipse cx="49.8613" cy="78.9798" rx="33.2644" ry="7.50163" fill="black" fill-opacity="0.4"/>
<path d="M21.505 90.7681L18.2331 92.9114C17.6878 92.3756 16.4881 90.6609 16.0518 88.0889C15.5065 84.874 15.5065 77.3723 16.0518 76.8364C16.5971 76.3006 22.5956 81.6589 27.5035 83.2664C32.4113 84.8739 37.8645 86.4814 52.5881 86.4814C64.3669 86.4814 77.4909 81.8375 82.5805 79.5156C83.1258 78.444 84.3255 77.0508 84.7618 80.0514C85.3071 83.8023 82.5805 94.5189 80.9446 94.5189C79.6358 94.5189 77.8544 91.6611 77.1273 90.2322C76.9456 92.1969 76.1049 96.1264 74.1963 96.1264C72.2877 96.1264 70.2654 93.2686 69.4929 91.8397C69.3111 93.6258 68.6204 97.198 67.3116 97.198C66.0029 97.198 63.858 95.0547 62.9491 93.983C62.7673 95.5905 61.9675 98.8055 60.2225 98.8055C58.4775 98.8055 55.86 96.305 54.7693 95.0547C54.7693 96.6622 54.4421 99.8772 53.1334 99.8772C51.4974 99.8772 49.8615 94.5189 48.7708 94.5189C47.6802 94.5189 47.1349 99.8772 44.9536 99.8772C43.2086 99.8772 42.7724 95.9477 42.7724 93.983C42.0453 95.5905 40.1548 98.8055 38.4098 98.8055C36.6648 98.8055 36.5921 94.8761 36.7739 92.9114C35.5015 94.3403 32.5204 97.198 30.7754 97.198C29.0304 97.198 28.5941 93.983 28.5941 92.3755C27.5035 93.8044 24.8859 96.555 23.1409 96.1264C21.3959 95.6977 21.3232 92.3755 21.505 90.7681Z" fill="#7445B8"/>
<path d="M21.505 90.7681L18.2331 92.9114C17.6878 92.3756 16.4881 90.6609 16.0518 88.0889C15.5065 84.874 15.5065 77.3723 16.0518 76.8364C16.5971 76.3006 22.5956 81.6589 27.5035 83.2664C32.4113 84.8739 37.8645 86.4814 52.5881 86.4814C64.3669 86.4814 77.4909 81.8375 82.5805 79.5156C83.1258 78.444 84.3255 77.0508 84.7618 80.0514C85.3071 83.8023 82.5805 94.5189 80.9446 94.5189C79.6358 94.5189 77.8544 91.6611 77.1273 90.2322C76.9456 92.1969 76.1049 96.1264 74.1963 96.1264C72.2877 96.1264 70.2654 93.2686 69.4929 91.8397C69.3111 93.6258 68.6204 97.198 67.3116 97.198C66.0029 97.198 63.858 95.0547 62.9491 93.983C62.7673 95.5905 61.9675 98.8055 60.2225 98.8055C58.4775 98.8055 55.86 96.305 54.7693 95.0547C54.7693 96.6622 54.4421 99.8772 53.1334 99.8772C51.4974 99.8772 49.8615 94.5189 48.7708 94.5189C47.6802 94.5189 47.1349 99.8772 44.9536 99.8772C43.2086 99.8772 42.7724 95.9477 42.7724 93.983C42.0453 95.5905 40.1548 98.8055 38.4098 98.8055C36.6648 98.8055 36.5921 94.8761 36.7739 92.9114C35.5015 94.3403 32.5204 97.198 30.7754 97.198C29.0304 97.198 28.5941 93.983 28.5941 92.3755C27.5035 93.8044 24.8859 96.555 23.1409 96.1264C21.3959 95.6977 21.3232 92.3755 21.505 90.7681Z" fill="black" fill-opacity="0.4"/>
<path d="M36.7737 75.229L16.5969 76.3007L17.6876 77.9082L36.7737 75.229Z" fill="#7445B8"/>
<path d="M36.7737 75.229L16.5969 76.3007L17.6876 77.9082L36.7737 75.229Z" fill="white" fill-opacity="0.6"/>
<path d="M37.8643 76.3007L19.8688 80.0515L23.1407 81.1231L37.8643 76.3007Z" fill="#7445B8"/>
<path d="M37.8643 76.3007L19.8688 80.0515L23.1407 81.1231L37.8643 76.3007Z" fill="white" fill-opacity="0.6"/>
<path d="M39.5002 77.9082L26.4126 83.2665L29.1392 84.874L39.5002 77.9082Z" fill="#7445B8"/>
<path d="M39.5002 77.9082L26.4126 83.2665L29.1392 84.874L39.5002 77.9082Z" fill="white" fill-opacity="0.6"/>
<path d="M42.2268 78.9798L32.9564 85.9456L35.683 86.4815L42.2268 78.9798Z" fill="#7445B8"/>
<path d="M42.2268 78.9798L32.9564 85.9456L35.683 86.4815L42.2268 78.9798Z" fill="white" fill-opacity="0.6"/>
<path d="M44.4081 78.9798L40.0456 87.0173L41.6815 86.1466L43.3175 87.5531L44.4081 78.9798Z" fill="#7445B8"/>
<path d="M44.4081 78.9798L40.0456 87.0173L41.6815 86.1466L43.3175 87.5531L44.4081 78.9798Z" fill="white" fill-opacity="0.6"/>
<path d="M47.68 80.5873L46.5894 87.0173C48.1689 85.4943 49.1467 85.9279 50.9519 87.5531L49.8613 80.5873H47.68Z" fill="#7445B8"/>
<path d="M47.68 80.5873L46.5894 87.0173C48.1689 85.4943 49.1467 85.9279 50.9519 87.5531L49.8613 80.5873H47.68Z" fill="white" fill-opacity="0.6"/>
<path d="M53.6785 80.0515L54.2238 87.5531L56.4051 86.1466L58.5864 87.0173L53.6785 80.0515Z" fill="#7445B8"/>
<path d="M53.6785 80.0515L54.2238 87.5531L56.4051 86.1466L58.5864 87.0173L53.6785 80.0515Z" fill="white" fill-opacity="0.6"/>
<path d="M56.9504 78.9798L61.3129 87.0173L65.1302 85.4098L56.9504 78.9798Z" fill="#7445B8"/>
<path d="M56.9504 78.9798L61.3129 87.0173L65.1302 85.4098L56.9504 78.9798Z" fill="white" fill-opacity="0.6"/>
<path d="M69.4927 84.3381L60.2223 77.9082L72.2193 84.3381H69.4927Z" fill="#7445B8"/>
<path d="M69.4927 84.3381L60.2223 77.9082L72.2193 84.3381H69.4927Z" fill="white" fill-opacity="0.6"/>
<path d="M74.9459 82.7306L61.3129 76.3007L78.2178 81.1231L74.9459 82.7306Z" fill="#7445B8"/>
<path d="M74.9459 82.7306L61.3129 76.3007L78.2178 81.1231L74.9459 82.7306Z" fill="white" fill-opacity="0.6"/>
<path d="M84.2163 77.9082L61.8583 75.229L82.5803 79.5157L84.2163 77.9082Z" fill="#7445B8"/>
<path d="M84.2163 77.9082L61.8583 75.229L82.5803 79.5157L84.2163 77.9082Z" fill="white" fill-opacity="0.6"/>
<path d="M72.2193 73.6215L61.8583 74.1574L77.6725 74.6932L72.2193 73.6215Z" fill="#7445B8"/>
<path d="M72.2193 73.6215L61.8583 74.1574L77.6725 74.6932L72.2193 73.6215Z" fill="white" fill-opacity="0.6"/>
<path d="M28.0486 73.6215L24.7767 74.1574H36.2283L28.0486 73.6215Z" fill="#7445B8"/>
<path d="M28.0486 73.6215L24.7767 74.1574H36.2283L28.0486 73.6215Z" fill="white" fill-opacity="0.6"/>
<path d="M15.5063 82.1949C15.5063 73.0858 19.3236 76.9898 17.1423 83.9556C14.961 90.9214 17.1423 93.0647 18.2329 93.0647C19.3236 93.0647 19.8689 90.3856 19.8689 87.1706C19.8689 83.9556 18.2329 80.2048 20.9595 80.2048C23.6861 80.2048 23.1408 83.4198 22.0502 88.7781C20.9595 94.1364 22.0502 96.2797 23.6861 96.2797C25.3221 96.2797 25.8674 92.5289 25.3221 89.3139C24.7767 86.0989 25.8674 83.4198 27.5033 83.4198C29.1393 83.4198 29.6846 86.0989 29.1393 90.3856C28.594 94.6722 28.594 97.3514 30.7752 97.3514C32.9565 97.3514 34.0471 94.1364 32.9565 90.3856C31.8659 86.6348 33.5018 85.5631 34.5925 85.5631C35.6831 85.5631 37.319 88.7781 36.7737 91.9931C36.2284 95.2081 36.7737 98.9589 38.4097 98.9589C40.0456 98.9589 40.5909 95.2081 40.0456 91.9931C39.5003 88.7781 40.0456 86.0989 41.6816 86.0989C43.3175 86.0989 43.8628 88.7781 43.3175 91.9931C42.7722 95.2081 42.2269 100.031 44.9535 100.031C47.6801 100.031 47.6801 95.2081 47.1348 91.9931C46.5894 88.7781 46.0441 86.0989 48.2254 86.0989C50.4067 86.0989 51.4973 88.7781 50.952 91.9931C50.4067 95.2081 50.952 100.031 53.1332 100.031C55.3145 100.031 55.3145 93.6006 54.7692 91.9931C54.2239 90.3856 54.2239 86.0989 56.4051 86.0989C58.5864 86.0989 59.677 89.3139 59.1317 91.9931C58.5864 94.6722 58.0411 98.9589 60.2224 98.9589C62.4036 98.9589 64.0396 95.2081 62.4036 91.4573C60.7677 87.7064 62.4036 85.5631 64.0396 85.5631C65.6755 85.5631 66.7662 86.6348 66.2209 90.3856C65.6755 94.1364 65.6755 97.3514 67.3115 97.3514C68.9474 97.3514 70.0381 93.6006 69.4928 90.3856C68.9474 87.1706 68.4021 83.9556 70.5834 83.9556C72.7647 83.9556 73.31 85.5631 72.7647 89.3139C72.2193 93.0647 72.2193 96.2797 74.4006 96.2797C76.5819 96.2797 77.6725 90.3856 76.0366 87.1706C74.4006 83.9556 75.4912 81.2765 77.1272 81.2765C78.7632 81.2765 79.3085 83.9556 79.3085 87.1706C79.3085 90.3856 78.7632 94.1364 80.9444 94.1364C83.1257 94.1364 83.1257 88.7781 82.5804 86.0989C82.0351 83.4198 82.0351 78.0615 83.671 78.0615C84.9798 78.0615 84.3981 84.1596 84.2163 84.874" stroke="#FAA21E" stroke-width="1.0504" stroke-linecap="round" stroke-linejoin="round"/>
<path d="M31.7874 16.6156C28.4417 15.5845 25.485 18.7164 26.0102 20.8172C23.3842 20.292 20.6393 21.97 20.9626 26.4023C17.9955 27.6065 17.4881 28.9733 18.2698 32.4123C15.0009 33.9904 15.577 37.6236 16.5565 39.1992C13.9307 41.3 12.8804 46.0267 15.577 49.1542C14.456 51.8039 15.1855 54.259 17.5004 55.5934C16.4061 57.8646 17.5004 60.7323 19.1826 61.2575C18.8866 67.5507 24.0597 68.7487 26.5354 69.1355C27.8342 74.5372 33.9808 73.413 38.0898 71.4768H63.7772C66.3117 72.1943 73.4022 71.9155 73.6653 68.4719C76.4265 69.2852 77.52 68.8577 77.8969 65.0376C82.1009 63.4452 83.4153 61.6944 82.1285 55.5934C84.0983 54.8616 84.5901 53.9545 83.6673 50.8714C86.347 47.2603 86.7395 44.9811 84.052 40.1393C85.4613 36.1181 85.0272 34.4002 81.7439 32.4123C82.3716 29.5682 82.1497 28.2227 79.4357 26.8316C79.7733 21.7942 78.5594 20.258 73.6653 19.9631C72.0545 16.127 70.5532 15.4206 66.7409 16.9582C65.1213 12.8795 63.6138 11.8459 59.0471 13.9532C57.5107 11.5578 56.4436 11.2499 54.0461 13.0946C50.2932 10.0217 46.5691 10.1518 42.8166 13.0946C39.6587 11.619 37.0394 12.414 35.4638 15.04C33.8882 13.9532 31.7874 15.04 31.7874 16.6156Z" fill="#D0333D"/>
<path d="M34.0618 19.5354C30.9256 18.5577 28.7539 20.0914 28.7539 22.6834C25.4376 23.3776 23.6737 24.7767 23.9767 28.9795C21.1952 30.1212 20.792 32.1275 22.1671 34.745C19.1028 36.2414 19.2041 37.7649 20.364 40.8507C16.5089 44.0695 17.1085 46.3349 19.6428 50.6197C18.4239 54.4727 19.2759 55.4601 21.4459 56.7254C20.4201 58.879 21.6993 59.0006 22.9151 60.4598C22.6376 66.4271 24.3421 67.7192 29.0456 68.1937C30.2632 73.3156 33.7982 73.6219 37.65 71.7861H64.8267C67.2026 72.4664 73.8494 72.202 74.096 68.9368C77.0563 68.9368 78.2953 68.2794 78.6486 64.6572C81.8334 65.1819 84.4874 59.4105 82.3642 55.7378C84.2107 55.0439 84.4874 52.5898 82.895 50.6197C85.407 47.1957 85.549 44.195 82.895 40.8507C84.2161 37.0377 82.895 34.745 80.7718 34.2262C81.3026 31.6028 79.7102 28.9795 78.0628 28.4548C78.6486 24.2574 77.0563 22.6834 73.3407 22.1587C71.8307 18.5213 71.1787 18.6334 67.6049 20.0914C66.0867 16.2239 64.6736 15.2439 60.3926 17.242C58.9524 14.9707 57.9521 14.6787 55.7045 16.428C52.1865 13.5141 49.7878 13.0723 46.2701 15.8627C43.3099 14.4635 41.183 14.911 38.839 17.242C36.185 16.428 34.5926 16.912 34.0618 19.5354Z" fill="#D0333D"/>
<path d="M34.0618 19.5354C30.9256 18.5577 28.7539 20.0914 28.7539 22.6834C25.4376 23.3776 23.6737 24.7767 23.9767 28.9795C21.1952 30.1212 20.792 32.1275 22.1671 34.745C19.1028 36.2414 19.2041 37.7649 20.364 40.8507C16.5089 44.0695 17.1085 46.3349 19.6428 50.6197C18.4239 54.4727 19.2759 55.4601 21.4459 56.7254C20.4201 58.879 21.6993 59.0006 22.9151 60.4598C22.6376 66.4271 24.3421 67.7192 29.0456 68.1937C30.2632 73.3156 33.7982 73.6219 37.65 71.7861H64.8267C67.2026 72.4664 73.8494 72.202 74.096 68.9368C77.0563 68.9368 78.2953 68.2794 78.6486 64.6572C81.8334 65.1819 84.4874 59.4105 82.3642 55.7378C84.2107 55.0439 84.4874 52.5898 82.895 50.6197C85.407 47.1957 85.549 44.195 82.895 40.8507C84.2161 37.0377 82.895 34.745 80.7718 34.2262C81.3026 31.6028 79.7102 28.9795 78.0628 28.4548C78.6486 24.2574 77.0563 22.6834 73.3407 22.1587C71.8307 18.5213 71.1787 18.6334 67.6049 20.0914C66.0867 16.2239 64.6736 15.2439 60.3926 17.242C58.9524 14.9707 57.9521 14.6787 55.7045 16.428C52.1865 13.5141 49.7878 13.0723 46.2701 15.8627C43.3099 14.4635 41.183 14.911 38.839 17.242C36.185 16.428 34.5926 16.912 34.0618 19.5354Z" fill="black" fill-opacity="0.2"/>
<path d="M69.1561 59.2381C69.1561 71.7579 62.4994 83.1666 50.0179 83.1666C37.5364 83.1666 30.8796 71.7579 30.8796 59.2381C30.8796 46.7184 35.892 36.5691 50.0179 36.5691C64.1437 36.5691 69.1561 46.7184 69.1561 59.2381Z" fill="#7445B8"/>
<path d="M69.1561 59.2381C69.1561 71.7579 62.4994 83.1666 50.0179 83.1666C37.5364 83.1666 30.8796 71.7579 30.8796 59.2381C30.8796 46.7184 35.892 36.5691 50.0179 36.5691C64.1437 36.5691 69.1561 46.7184 69.1561 59.2381Z" fill="white" fill-opacity="0.8"/>
<path d="M66.3624 59.3056C68.3238 68.6049 55.4262 80.6703 50.0176 80.6703C44.6091 80.6703 30.8794 70.6851 33.6729 59.3056C36.4664 47.9261 37.9536 39.0654 50.0176 39.0654C62.0816 39.0654 64.401 50.0064 66.3624 59.3056Z" fill="#7445B8"/>
<path d="M66.3624 59.3056C68.3238 68.6049 55.4262 80.6703 50.0176 80.6703C44.6091 80.6703 30.8794 70.6851 33.6729 59.3056C36.4664 47.9261 37.9536 39.0654 50.0176 39.0654C62.0816 39.0654 64.401 50.0064 66.3624 59.3056Z" fill="white" fill-opacity="0.95"/>
<circle cx="38.5809" cy="68.3659" r="1.34552" fill="#D0333D"/>
<circle cx="38.5809" cy="68.3659" r="1.34552" fill="black" fill-opacity="0.2"/>
<circle cx="60.7818" cy="68.3659" r="1.34552" fill="#D0333D"/>
<circle cx="60.7818" cy="68.3659" r="1.34552" fill="black" fill-opacity="0.2"/>
<circle cx="36.7041" cy="64.0283" r="2.49629" fill="#7445B8"/>
<circle cx="36.7041" cy="64.0283" r="2.49629" fill="white" fill-opacity="0.4"/>
<circle cx="63.3313" cy="64.0283" r="2.49629" fill="#7445B8"/>
<circle cx="63.3313" cy="64.0283" r="2.49629" fill="white" fill-opacity="0.4"/>
<path d="M38.649 55.2319L40.3132 49.8827L42.6431 55.2319L47.3028 57.3716L42.6431 59.5112L40.646 64.8604L38.649 59.5112L33.9893 57.3716L38.649 55.2319Z" fill="#FAA21E"/>
<path d="M57.3922 55.2319L59.0564 49.8827L61.3862 55.2319L66.046 57.3716L61.3862 59.5112L59.3892 64.8604L57.3922 59.5112L52.7324 57.3716L57.3922 55.2319Z" fill="#2FC4A7"/>
<path d="M58.0175 69.5665C55.5248 66.9111 51.1399 70.711 49.6442 70.711C48.1484 70.711 43.061 66.9111 41.0668 69.5665C39.0725 72.2219 46.0523 78.0638 50.0407 78.0638C54.0291 78.0638 60.5103 72.2219 58.0175 69.5665Z" fill="#D0333D"/>
<path d="M58.0175 69.5665C55.5248 66.9111 51.1399 70.711 49.6442 70.711C48.1484 70.711 43.061 66.9111 41.0668 69.5665C39.0725 72.2219 46.0523 78.0638 50.0407 78.0638C54.0291 78.0638 60.5103 72.2219 58.0175 69.5665Z" fill="white" fill-opacity="0.5"/>
<path d="M38.3684 68.6049C39.4779 68.8822 42.1961 69.853 44.1931 71.5172C46.6894 73.5974 48.7696 74.8456 50.0178 74.8456C51.2659 74.8456 53.7622 72.7653 55.8425 71.5172C57.5067 70.5187 59.5869 69.1596 60.835 68.6049" stroke="#D0333D" stroke-width="1.42645"/>
<path d="M38.3684 68.6049C39.4779 68.8822 42.1961 69.853 44.1931 71.5172C46.6894 73.5974 48.7696 74.8456 50.0178 74.8456C51.2659 74.8456 53.7622 72.7653 55.8425 71.5172C57.5067 70.5187 59.5869 69.1596 60.835 68.6049" stroke="black" stroke-opacity="0.2" stroke-width="1.42645"/>
<path d="M38.6151 43.5922C36.5143 44.3083 35.4639 48.814 35.4639 50.7535C35.9891 48.3664 38.0648 44.4767 40.1907 45.3825C42.2914 46.2777 44.9174 49.8584 48.0686 50.7535C47.3684 50.306 45.4426 48.068 44.3922 46.7253L44.3921 46.7251C43.1561 45.1451 41.241 42.697 38.6151 43.5922Z" fill="#D0333D"/>
<path d="M62.249 46.6271C64.3498 47.0363 64.875 50.2456 64.875 51.3539C64.3498 49.9898 62.7993 48.2103 60.6734 48.7279C58.5726 49.2394 56.997 51.3539 52.2702 50.8287C52.9705 50.5729 55.4214 50.0203 56.4718 49.2531C57.7078 48.3502 59.623 46.1156 62.249 46.6271Z" fill="#D0333D"/>
<circle cx="40.6462" cy="57.3716" r="2.49629" fill="#FEFEFE"/>
<circle cx="59.3891" cy="57.3716" r="2.49629" fill="#FEFEFE"/>
<circle cx="40.6466" cy="57.3716" r="1.6642" fill="#D0333D"/>
<circle cx="40.6466" cy="57.3716" r="1.6642" fill="black" fill-opacity="0.6"/>
<circle cx="59.389" cy="57.3716" r="1.6642" fill="#D0333D"/>
<circle cx="59.389" cy="57.3716" r="1.6642" fill="black" fill-opacity="0.6"/>
<ellipse cx="50.1695" cy="61.7827" rx="5.25199" ry="4.72679" fill="#D0333D"/>
<ellipse cx="49.1191" cy="59.6819" rx="2.10079" ry="1.5756" transform="rotate(-15.2881 49.1191 59.6819)" fill="#D0333D"/>
<ellipse cx="49.1191" cy="59.6819" rx="2.10079" ry="1.5756" transform="rotate(-15.2881 49.1191 59.6819)" fill="white" fill-opacity="0.8"/>
<path d="M65.7575 19.0456L55.7165 14.3446C56.5615 10.717 59.1564 4.21234 65.2497 2.39205C71.3429 0.571765 75.744 2.24935 78.426 3.77394C76.5624 3.56484 74.8734 3.95876 70.6076 8.36443C66.3419 12.7701 65.5968 17.3209 65.7575 19.0456Z" fill="#2FC4A7"/>
<path d="M65.7575 19.0457L59.4999 18.0001C60.3448 14.3724 60.862 9.74721 66 6C68.7422 4.00007 75.744 2.2494 78.426 3.77398C76.5625 3.56488 74.8734 3.95881 70.6076 8.36448C66.3419 12.7701 65.5968 17.321 65.7575 19.0457Z" fill="#2FC4A7"/>
<path d="M65.7575 19.0457L59.4999 18.0001C60.3448 14.3724 60.862 9.74721 66 6C68.7422 4.00007 75.744 2.2494 78.426 3.77398C76.5625 3.56488 74.8734 3.95881 70.6076 8.36448C66.3419 12.7701 65.5968 17.321 65.7575 19.0457Z" fill="black" fill-opacity="0.2"/>
<path d="M58.184 4.86374C63.07 8.6828 62.2132 16.4479 61 19.5L51.7153 15.6119C52.0388 15.0745 52.5244 13.0241 51.8793 9.122C51.2341 5.21987 48.7124 2.94625 45.6206 1.45151C49.0469 1.56143 53.2979 1.04467 58.184 4.86374Z" fill="#A272E4"/>
<path d="M54.5 6.99994C57.4998 10.5 58.2132 14.9478 57 18L51.7153 15.6119C52.0387 15.0744 52.5243 13.0241 51.8792 9.12198C51.2341 5.21985 48.7123 2.94623 45.6205 1.4515C49.0468 1.56142 52.4999 4.66636 54.5 6.99994Z" fill="#7445B8"/>
<path d="M54.5 6.99994C57.4998 10.5 58.2132 14.9478 57 18L51.7153 15.6119C52.0387 15.0744 52.5243 13.0241 51.8792 9.12198C51.2341 5.21985 48.7123 2.94623 45.6205 1.4515C49.0468 1.56142 52.4999 4.66636 54.5 6.99994Z" fill="white" fill-opacity="0.2"/>
<path d="M66.8121 22.632L57 18C59.6575 14.0008 67.5428 8.18764 75.7511 10.9123C82.329 13.0958 84.367 17.7181 83.8844 20.9057C82.3174 19.2942 79.6575 17.438 74.9258 17.5349C70.1941 17.6318 67.5451 20.9733 66.8121 22.632Z" fill="#1D8CE0"/>
<path d="M66.8119 22.632L61.4998 20C64.4998 17 66.574 15.0001 73 15C77.6877 15 82 17 83.8842 20.9057C82.3172 19.2942 79.6573 17.438 74.9256 17.5349C70.1939 17.6318 67.5449 20.9734 66.8119 22.632Z" fill="#1D8CE0"/>
<path d="M66.8119 22.632L61.4998 20C64.4998 17 66.574 15.0001 73 15C77.6877 15 82 17 83.8842 20.9057C82.3172 19.2942 79.6573 17.438 74.9256 17.5349C70.1939 17.6318 67.5449 20.9734 66.8119 22.632Z" fill="black" fill-opacity="0.2"/>
<path d="M58.5 22C61.8176 23.3167 64.8249 23.4155 67.5 23.5L68.5 20.5C65.8774 20.5116 63.0646 20.3571 60 19C56.8208 17.5922 52.8877 15.2313 51.9999 14L51 17C52.3135 18.5558 54.9999 20.6109 58.5 22Z" fill="#FAA21E"/>
<circle cx="77.6642" cy="3.66413" r="1.6642" fill="#FAA21E"/>
<circle cx="84.6642" cy="20.6641" r="1.6642" fill="#FAA21E"/>
<circle cx="45.5" cy="1.5" r="1.5" fill="#FAA21E"/>
<path d="M1.67921 78.9546C3.6633 76.7758 6.97012 75.901 8.37552 75.7359C8.37552 74.7455 8.57392 72.1706 9.36752 69.7937C10.3595 66.8225 13.8317 68.0605 16.5599 69.7937C18.7424 71.1802 20.776 73.8377 21.5201 74.9931L23.5042 71.5268C24.4962 69.7937 26.9763 68.3081 29.4564 69.2985C31.9366 70.2888 32.9286 74.7455 30.9445 76.7263C28.9604 78.707 28.4644 74.9931 26.2323 76.7263C24.0002 78.4594 24.2482 85.392 23.5042 86.8776C22.7601 88.3631 21.5201 88.6107 18.792 90.8391C16.0638 93.0674 13.8317 93.0674 12.5917 92.8198C11.5996 92.6217 10.1942 91.912 9.61553 91.5818L9.36752 92.3246C9.78087 92.8198 10.7068 94.2063 11.1036 95.7909C11.5996 97.7717 9.36752 100 8.8715 100C8.37547 100 7.87945 99.7524 5.89536 98.5144C3.91127 97.2765 2.91922 94.8005 2.67121 93.8102C2.4728 93.0179 2.75388 90.3439 2.91922 89.1059C3.16725 89.1059 3.26649 88.9078 1.67921 88.1155C-0.304879 87.1252 -0.800902 81.6781 1.67921 78.9546Z" fill="#FEFEFE"/>
<path d="M15.3196 88.3632C13.7324 86.9766 14.1622 83.6589 14.5756 82.1733C14.4506 83.2462 14.4245 85.7387 15.3196 87.1252C16.2148 88.5117 18.338 89.5186 19.2878 89.8487C18.6264 89.9313 16.9069 89.7497 15.3196 88.3632Z" fill="#898989"/>
<path d="M15.3196 88.3632C13.7324 86.9766 14.1622 83.6589 14.5756 82.1733C14.4506 83.2462 14.4245 85.7387 15.3196 87.1252C16.2148 88.5117 18.338 89.5186 19.2878 89.8487C18.6264 89.9313 16.9069 89.7497 15.3196 88.3632Z" fill="white" fill-opacity="0.4"/>
<path d="M6.88734 82.6685C6.49052 81.6781 4.90325 80.2751 4.15921 79.6974C4.37344 79.4942 7.09092 81.9816 7.38336 81.9257C7.6758 81.8699 7.63137 78.707 7.63137 78.707C7.95991 79.6349 7.88597 80.4797 8.12739 82.1733C8.66047 82.6331 9.2503 82.0637 9.86347 81.4306C9.86347 81.6781 9.71467 82.2724 9.11944 82.6685C8.52421 83.0647 7.71404 82.8336 7.38336 82.6685C7.5487 83.0812 8.12739 84.1541 8.37541 85.1444C8.69933 86.438 8.12739 88.1156 6.39131 88.8583C5.00245 89.4526 3.33251 89.271 2.67114 89.1059C3.58052 89.0234 5.94489 88.8583 7.13535 87.868C8.62342 86.63 7.38336 83.9065 6.88734 82.6685Z" fill="#898989"/>
<path d="M6.88734 82.6685C6.49052 81.6781 4.90325 80.2751 4.15921 79.6974C4.37344 79.4942 7.09092 81.9816 7.38336 81.9257C7.6758 81.8699 7.63137 78.707 7.63137 78.707C7.95991 79.6349 7.88597 80.4797 8.12739 82.1733C8.66047 82.6331 9.2503 82.0637 9.86347 81.4306C9.86347 81.6781 9.71467 82.2724 9.11944 82.6685C8.52421 83.0647 7.71404 82.8336 7.38336 82.6685C7.5487 83.0812 8.12739 84.1541 8.37541 85.1444C8.69933 86.438 8.12739 88.1156 6.39131 88.8583C5.00245 89.4526 3.33251 89.271 2.67114 89.1059C3.58052 89.0234 5.94489 88.8583 7.13535 87.868C8.62342 86.63 7.38336 83.9065 6.88734 82.6685Z" fill="white" fill-opacity="0.2"/>
<path d="M9.61558 78.9546C9.41717 77.5681 8.87155 76.066 8.62354 75.4883C8.95422 75.9009 9.66518 76.9243 9.86359 77.7166C10.1116 78.707 10.1116 80.6877 11.8477 80.4401C13.5838 80.1926 15.8159 77.9642 16.0639 75.9835C16.2623 74.3989 14.6585 72.022 13.8318 71.0316C14.8238 72.1045 16.7583 74.6465 16.5599 76.2311C16.3119 78.2118 14.8238 79.6974 13.0877 80.6877C11.3517 81.6781 9.86359 80.6877 9.61558 78.9546Z" fill="#898989"/>
<path d="M9.61558 78.9546C9.41717 77.5681 8.87155 76.066 8.62354 75.4883C8.95422 75.9009 9.66518 76.9243 9.86359 77.7166C10.1116 78.707 10.1116 80.6877 11.8477 80.4401C13.5838 80.1926 15.8159 77.9642 16.0639 75.9835C16.2623 74.3989 14.6585 72.022 13.8318 71.0316C14.8238 72.1045 16.7583 74.6465 16.5599 76.2311C16.3119 78.2118 14.8238 79.6974 13.0877 80.6877C11.3517 81.6781 9.86359 80.6877 9.61558 78.9546Z" fill="white" fill-opacity="0.4"/>
<path d="M98.3208 78.9546C96.3367 76.7758 93.0299 75.901 91.6245 75.7359C91.6245 74.7455 91.4261 72.1706 90.6325 69.7937C89.6405 66.8225 86.1683 68.0605 83.4401 69.7937C81.2576 71.1802 79.224 73.8377 78.4799 74.9931L76.4958 71.5268C75.5038 69.7937 73.0237 68.3081 70.5436 69.2985C68.0634 70.2888 67.0714 74.7455 69.0555 76.7263C71.0396 78.707 71.5356 74.9931 73.7677 76.7263C75.9998 78.4594 75.7518 85.392 76.4958 86.8776C77.2399 88.3631 78.4799 88.6107 81.208 90.8391C83.9362 93.0674 86.1683 93.0674 87.4083 92.8198C88.4004 92.6217 89.8058 91.912 90.3845 91.5818L90.6325 92.3246C90.2191 92.8198 89.2932 94.2063 88.8964 95.7909C88.4004 97.7717 90.6325 100 91.1285 100C91.6245 100 92.1205 99.7524 94.1046 98.5144C96.0887 97.2765 97.0808 94.8005 97.3288 93.8102C97.5272 93.0179 97.2461 90.3439 97.0808 89.1059C96.8328 89.1059 96.7335 88.9078 98.3208 88.1155C100.305 87.1252 100.801 81.6781 98.3208 78.9546Z" fill="#FEFEFE"/>
<path d="M84.6804 88.3632C86.2676 86.9766 85.8378 83.6589 85.4244 82.1733C85.5494 83.2462 85.5755 85.7387 84.6804 87.1252C83.7852 88.5117 81.662 89.5186 80.7122 89.8487C81.3736 89.9313 83.0931 89.7497 84.6804 88.3632Z" fill="#898989"/>
<path d="M84.6804 88.3632C86.2676 86.9766 85.8378 83.6589 85.4244 82.1733C85.5494 83.2462 85.5755 85.7387 84.6804 87.1252C83.7852 88.5117 81.662 89.5186 80.7122 89.8487C81.3736 89.9313 83.0931 89.7497 84.6804 88.3632Z" fill="white" fill-opacity="0.4"/>
<path d="M93.1127 82.6685C93.5095 81.6781 95.0968 80.2751 95.8408 79.6974C95.6266 79.4942 92.9091 81.9816 92.6166 81.9257C92.3242 81.8699 92.3686 78.707 92.3686 78.707C92.0401 79.6349 92.114 80.4797 91.8726 82.1733C91.3395 82.6331 90.7497 82.0637 90.1365 81.4306C90.1365 81.6781 90.2853 82.2724 90.8806 82.6685C91.4758 83.0647 92.286 82.8336 92.6166 82.6685C92.4513 83.0812 91.8726 84.1541 91.6246 85.1444C91.3007 86.438 91.8726 88.1156 93.6087 88.8583C94.9975 89.4526 96.6675 89.271 97.3289 89.1059C96.4195 89.0234 94.0551 88.8583 92.8647 87.868C91.3766 86.63 92.6166 83.9065 93.1127 82.6685Z" fill="#898989"/>
<path d="M93.1127 82.6685C93.5095 81.6781 95.0968 80.2751 95.8408 79.6974C95.6266 79.4942 92.9091 81.9816 92.6166 81.9257C92.3242 81.8699 92.3686 78.707 92.3686 78.707C92.0401 79.6349 92.114 80.4797 91.8726 82.1733C91.3395 82.6331 90.7497 82.0637 90.1365 81.4306C90.1365 81.6781 90.2853 82.2724 90.8806 82.6685C91.4758 83.0647 92.286 82.8336 92.6166 82.6685C92.4513 83.0812 91.8726 84.1541 91.6246 85.1444C91.3007 86.438 91.8726 88.1156 93.6087 88.8583C94.9975 89.4526 96.6675 89.271 97.3289 89.1059C96.4195 89.0234 94.0551 88.8583 92.8647 87.868C91.3766 86.63 92.6166 83.9065 93.1127 82.6685Z" fill="white" fill-opacity="0.2"/>
<path d="M90.3844 78.9546C90.5828 77.5681 91.1285 76.066 91.3765 75.4883C91.0458 75.9009 90.3348 76.9243 90.1364 77.7166C89.8884 78.707 89.8884 80.6877 88.1523 80.4401C86.4162 80.1926 84.1841 77.9642 83.9361 75.9835C83.7377 74.3989 85.3415 72.022 86.1682 71.0316C85.1762 72.1045 83.2417 74.6465 83.4401 76.2311C83.6881 78.2118 85.1762 79.6974 86.9123 80.6877C88.6483 81.6781 90.1364 80.6877 90.3844 78.9546Z" fill="#898989"/>
<path d="M90.3844 78.9546C90.5828 77.5681 91.1285 76.066 91.3765 75.4883C91.0458 75.9009 90.3348 76.9243 90.1364 77.7166C89.8884 78.707 89.8884 80.6877 88.1523 80.4401C86.4162 80.1926 84.1841 77.9642 83.9361 75.9835C83.7377 74.3989 85.3415 72.022 86.1682 71.0316C85.1762 72.1045 83.2417 74.6465 83.4401 76.2311C83.6881 78.2118 85.1762 79.6974 86.9123 80.6877C88.6483 81.6781 90.1364 80.6877 90.3844 78.9546Z" fill="white" fill-opacity="0.4"/>
</g>
<defs>
<clipPath id="clip0_4597_6827">
<rect width="100" height="100" fill="white"/>
</clipPath>
</defs>
</svg>
