<svg width="100" height="100" viewBox="0 0 100 100" fill="none" xmlns="http://www.w3.org/2000/svg">
<g clip-path="url(#clip0_4649_6850)">
<path d="M24.9114 74.0758C25.547 75.5311 44.887 76.9336 46.6366 75.0693L51.8318 75.5661C54.1714 77.2971 77.1818 73.4874 78.5986 70.5068C80.4878 66.5327 75.1481 54.9279 74.1779 49.5045C72.7963 41.7803 72.8036 34.8063 71 25.755C68.7502 14.4644 59.8409 9 49.4704 9C39.0999 9 32.7052 16.3307 29.9996 23.7848C27.2941 31.2389 28.6061 43.8329 27.7452 50.728C27.0239 56.5053 21.9708 70.0013 24.9114 74.0758Z" fill="#CE4317"/>
<circle cx="45.5" cy="52.5" r="1.5" fill="#2FC4A7"/>
<circle cx="45.5" cy="52.5" r="1.5" fill="black" fill-opacity="0.2"/>
<circle cx="54.5" cy="52.5" r="1.5" fill="#2FC4A7"/>
<circle cx="54.5" cy="52.5" r="1.5" fill="black" fill-opacity="0.2"/>
<path d="M55 48H45V57H55V48Z" fill="#CE4317"/>
<path d="M55 48H45V57H55V48Z" fill="white" fill-opacity="0.6"/>
<ellipse cx="66.9793" cy="35.9474" rx="2.80134" ry="2.76706" transform="rotate(3.81754 66.9793 35.9474)" fill="#CE4317"/>
<ellipse cx="66.9793" cy="35.9474" rx="2.80134" ry="2.76706" transform="rotate(3.81754 66.9793 35.9474)" fill="white" fill-opacity="0.6"/>
<ellipse cx="33.429" cy="36.4702" rx="3.27178" ry="2.76706" transform="rotate(-2.40063 33.429 36.4702)" fill="#CE4317"/>
<ellipse cx="33.429" cy="36.4702" rx="3.27178" ry="2.76706" transform="rotate(-2.40063 33.429 36.4702)" fill="white" fill-opacity="0.6"/>
<ellipse cx="50" cy="34.5" rx="17" ry="15.5" fill="#CE4317"/>
<ellipse cx="50" cy="34.5" rx="17" ry="15.5" fill="white" fill-opacity="0.6"/>
<ellipse cx="50" cy="34.5" rx="17" ry="15.5" fill="#FEFEFE" fill-opacity="0.15"/>
<ellipse cx="41" cy="40.5" rx="3" ry="2.5" fill="#D0333D"/>
<ellipse cx="41" cy="40.5" rx="3" ry="2.5" fill="white" fill-opacity="0.6"/>
<ellipse cx="59" cy="40.5" rx="3" ry="2.5" fill="#D0333D"/>
<ellipse cx="59" cy="40.5" rx="3" ry="2.5" fill="white" fill-opacity="0.6"/>
<ellipse cx="58" cy="35" rx="2" ry="3.5" fill="#7445B8"/>
<ellipse cx="2" cy="3.5" rx="2" ry="3.5" transform="matrix(-1 0 0 1 44 31.5)" fill="#7445B8"/>
<ellipse cx="5.83857" cy="4.90576" rx="5.83857" ry="4.90576" transform="matrix(-0.992557 0.121779 0.121779 0.992557 52.1938 79.0911)" fill="#FAA21E"/>
<ellipse cx="5.83857" cy="4.90576" rx="5.83857" ry="4.90576" transform="matrix(-0.992557 0.121779 0.121779 0.992557 52.1938 79.0911)" fill="white" fill-opacity="0.6"/>
<path d="M35.3686 32.1063C41.3908 31.6762 50.7773 28.4168 53.0051 20.0619C53.4353 25.2238 58.128 29.8001 64.1893 32.1063C65.4798 35.1175 65.3454 37.8781 63.7591 41.5698C66.3401 39.419 67.2004 36.2359 67.2004 33.827C67.2004 30.8159 65.9103 23.073 59.4579 19.6317C53.0055 16.1904 46.5529 17.0507 40.1005 19.6317C33.6482 22.2126 32.3577 29.5254 32.7878 34.6873C33.132 38.8168 35.3686 41.5698 36.2289 42C34.5083 39.419 34.0781 35.5476 35.3686 32.1063Z" fill="#CE4317"/>
<path d="M50 19C46 19 40 20.1765 36 21L31 6.58824L35 9.05882L37.5 17.2941L40 16.4706L37.5 8.64706L39 4.11765L43.5 7.41176L45 15.6471L47.5 15.2353L46 4.94118L50 0L54 4.94118L52.5 15.2353L55 15.6471L56.5 7.82353L60.5 4.11765L62.5 8.64706L60 16.4706L62.5 17.2941L65 9.05882L69 6.58824L64 21C60 20.1765 54 19 50 19Z" fill="#FAA21E"/>
<path d="M48 7C49.1991 5.87403 49.6312 5.21423 50 4C50.2587 5.14944 50.7696 5.80901 52 7C50.8968 8.10139 50.4792 8.76258 50 10C49.5408 8.70956 49.1422 8.04226 48 7Z" fill="#D0333D"/>
<path d="M38.879 10.2929C39.7467 9.08778 40.0089 8.43971 40.1034 7.33856C40.567 8.2505 41.1629 8.69598 42.519 9.43433C41.7337 10.5981 41.4849 11.2443 41.2946 12.3886C40.6205 11.401 40.1253 10.9249 38.879 10.2929Z" fill="#2FC4A7"/>
<path d="M38.879 10.2929C39.7467 9.08778 40.0089 8.43971 40.1034 7.33856C40.567 8.2505 41.1629 8.69598 42.519 9.43433C41.7337 10.5981 41.4849 11.2443 41.2946 12.3886C40.6205 11.401 40.1253 10.9249 38.879 10.2929Z" fill="black" fill-opacity="0.2"/>
<path d="M57.4762 9.55024C58.7265 8.79317 59.2173 8.30438 59.7396 7.33373C59.7883 8.35401 60.1402 8.99995 61.0506 10.2177C59.8899 10.9699 59.4118 11.4623 58.7872 12.4342C58.5817 11.2606 58.3314 10.6268 57.4762 9.55024Z" fill="#1D8CE0"/>
<path d="M57.4762 9.55024C58.7265 8.79317 59.2173 8.30438 59.7396 7.33373C59.7883 8.35401 60.1402 8.99995 61.0506 10.2177C59.8899 10.9699 59.4118 11.4623 58.7872 12.4342C58.5817 11.2606 58.3314 10.6268 57.4762 9.55024Z" fill="black" fill-opacity="0.2"/>
<path d="M45.5 53L50 52.5L55.5 53C55.3333 53.8333 55.3 55.6 56.5 56C57.7 56.4 65.8333 59.1667 68.5 59.5C68.3333 64.5 64.9 74.6 62.5 75C59.5 75.5 41.5 75.5 38 75C35.2 74.6 31.1667 64.5 31 59.5C33.5 59 41.8 56 43 56C44.2 56 45.1667 54 45.5 53Z" fill="#CE4317"/>
<path d="M45.5 53L50 52.5L55.5 53C55.3333 53.8333 55.3 55.6 56.5 56C57.7 56.4 65.8333 59.1667 68.5 59.5C68.3333 64.5 64.9 74.6 62.5 75C59.5 75.5 41.5 75.5 38 75C35.2 74.6 31.1667 64.5 31 59.5C33.5 59 41.8 56 43 56C44.2 56 45.1667 54 45.5 53Z" fill="white" fill-opacity="0.6"/>
<path d="M82.2922 129.697L88.7962 130.142L89.7286 122.134C89.7286 122.134 95.509 96.0843 89.5008 95.135C83.4926 94.1856 82.0432 100.198 82.0432 100.198L82.0896 105.698L82.2922 129.697Z" fill="#546DDB"/>
<path d="M82.2922 129.697L88.7962 130.142L89.7286 122.134C89.7286 122.134 95.509 96.0843 89.5008 95.135C83.4926 94.1856 82.0432 100.198 82.0432 100.198L82.0896 105.698L82.2922 129.697Z" fill="white" fill-opacity="0.4"/>
<path d="M24.8416 58.3438C26.4602 58.1441 29.6272 60.6531 29.763 61.1577L31.3948 74.6406L27.6331 79.5C28.2453 85.4847 28.5559 98.1174 27.6331 99.6387C26.7104 101.16 21.6833 101.872 19.2852 102.037L10.8002 98.9785C9.36322 97.5593 6.63847 94.0378 7.23518 91.3055C7.98107 87.8902 22.2626 58.662 24.8416 58.3438Z" fill="#546DDB"/>
<path d="M24.8416 58.3438C26.4602 58.1441 29.6272 60.6531 29.763 61.1577L31.3948 74.6406L27.6331 79.5C28.2453 85.4847 28.5559 98.1174 27.6331 99.6387C26.7104 101.16 21.6833 101.872 19.2852 102.037L10.8002 98.9785C9.36322 97.5593 6.63847 94.0378 7.23518 91.3055C7.98107 87.8902 22.2626 58.662 24.8416 58.3438Z" fill="white" fill-opacity="0.6"/>
<path d="M77 58C75.3783 57.8271 71.8953 59.3507 71.7678 59.8574L68.4046 74.4361L72 79.5C71.4869 85.494 72.5943 95.3223 73.5421 96.8282C74.49 98.3341 80.52 100.432 82.9206 100.558L91.3538 97.3594C92.7671 95.9166 95.4332 92.3504 94.7913 89.6284C93.989 86.2259 79.5839 58.2755 77 58Z" fill="#546DDB"/>
<path d="M77 58C75.3783 57.8271 71.8953 59.3507 71.7678 59.8574L68.4046 74.4361L72 79.5C71.4869 85.494 72.5943 95.3223 73.5421 96.8282C74.49 98.3341 80.52 100.432 82.9206 100.558L91.3538 97.3594C92.7671 95.9166 95.4332 92.3504 94.7913 89.6284C93.989 86.2259 79.5839 58.2755 77 58Z" fill="white" fill-opacity="0.6"/>
<path d="M50 75.5C39.5 72.5 35 67 33 59L28 59.5C28.5 63.1667 29.5 71 29.5 73C29.5 75 28.5 78.1667 28 79.5L33.5 100H66.5L72 79.5C71.3333 78.6667 70.5 76.2 70.5 73C70.5 69.8 71.3333 62.6667 72 59.5L67 59C64 69 60 72.5 50 75.5Z" fill="#7445B8"/>
<path d="M50 75.5C39.5 72.5 35 67 33 59L28 59.5C28.5 63.1667 29.5 71 29.5 73C29.5 75 28.5 78.1667 28 79.5L33.5 100H66.5L72 79.5C71.3333 78.6667 70.5 76.2 70.5 73C70.5 69.8 71.3333 62.6667 72 59.5L67 59C64 69 60 72.5 50 75.5Z" fill="white" fill-opacity="0.2"/>
<path d="M50 75C41.5 72.5 36.7945 68.0694 33 59L30.5 59.25C31.6667 63 35.8363 70.4354 39.5 73C44.5 76.5 46.6667 76.5 48 77V100H52V77C54.1667 76.3333 57.8209 75.8112 61.5 72.5C66.5 68 67.75 64 69.5 59.25L67 59C63.1843 68.5753 60 72.5 50 75Z" fill="#7445B8"/>
<path d="M50 75C41.5 72.5 36.7945 68.0694 33 59L30.5 59.25C31.6667 63 35.8363 70.4354 39.5 73C44.5 76.5 46.6667 76.5 48 77V100H52V77C54.1667 76.3333 57.8209 75.8112 61.5 72.5C66.5 68 67.75 64 69.5 59.25L67 59C63.1843 68.5753 60 72.5 50 75Z" fill="white" fill-opacity="0.95"/>
<circle cx="44.5" cy="54.5" r="1.5" fill="#2FC4A7"/>
<circle cx="46" cy="56.5" r="1.5" fill="#2FC4A7"/>
<circle cx="46" cy="56.5" r="1.5" fill="white" fill-opacity="0.2"/>
<circle cx="48.6001" cy="57.5" r="1.5" fill="#2FC4A7"/>
<circle cx="48.6001" cy="57.5" r="1.5" fill="white" fill-opacity="0.4"/>
<circle cx="51.3999" cy="57.5" r="1.5" fill="#2FC4A7"/>
<circle cx="51.3999" cy="57.5" r="1.5" fill="white" fill-opacity="0.4"/>
<circle cx="55.5" cy="54.5" r="1.5" fill="#2FC4A7"/>
<circle cx="54" cy="56.5" r="1.5" fill="#2FC4A7"/>
<circle cx="54" cy="56.5" r="1.5" fill="white" fill-opacity="0.2"/>
<path d="M11.1002 92.8519C11.1837 91.6357 19.026 75.5763 22.6439 68.1876L15.3328 91.615L15.2923 99.7583C14.0553 97.6369 11.0167 94.068 11.1002 92.8519Z" fill="#546DDB"/>
<path d="M11.1002 92.8519C11.1837 91.6357 19.026 75.5763 22.6439 68.1876L15.3328 91.615L15.2923 99.7583C14.0553 97.6369 11.0167 94.068 11.1002 92.8519Z" fill="white" fill-opacity="0.4"/>
<path d="M22.5224 92.6176L23.5659 77.4153L25.9954 94.8925L20.4525 100.113L22.5224 92.6176Z" fill="#546DDB"/>
<path d="M22.5224 92.6176L23.5659 77.4153L25.9954 94.8925L20.4525 100.113L22.5224 92.6176Z" fill="white" fill-opacity="0.4"/>
<path d="M90.9528 91.2386C90.8492 90.0239 82.7423 74.0965 79.0026 66.7687L86.7004 90.0719L86.8756 98.2134C88.0773 96.0718 91.0564 92.4532 90.9528 91.2386Z" fill="#546DDB"/>
<path d="M90.9528 91.2386C90.8492 90.0239 82.7423 74.0965 79.0026 66.7687L86.7004 90.0719L86.8756 98.2134C88.0773 96.0718 91.0564 92.4532 90.9528 91.2386Z" fill="white" fill-opacity="0.4"/>
<path d="M79.5283 91.1933L78.2335 76.0104L76.0934 93.5254L81.7219 98.653L79.5283 91.1933Z" fill="#546DDB"/>
<path d="M79.5283 91.1933L78.2335 76.0104L76.0934 93.5254L81.7219 98.653L79.5283 91.1933Z" fill="white" fill-opacity="0.4"/>
<path d="M35 45C35 46.1046 34.1046 47 33 47C31.8954 47 31 46.1046 31 45C31 43.8954 33 40 33 40C33 40 35 43.8954 35 45Z" fill="#2FC4A7"/>
<path d="M69 45C69 46.1046 68.1046 47 67 47C65.8954 47 65 46.1046 65 45C65 43.8954 67 40 67 40C67 40 69 43.8954 69 45Z" fill="#2FC4A7"/>
<path d="M17.1949 51.562C17.4319 51.7543 17.7646 51.7757 18.0243 51.6154C18.2841 51.455 18.414 51.1479 18.3482 50.8498C17.5686 47.3177 18.8919 45.2982 20.5007 44.5764C22.1589 43.8324 24.3869 44.3211 25.7655 46.3461C27.606 49.0496 27.4119 52.8691 26.656 56.1761C26.2838 57.8047 25.7875 59.2566 25.3833 60.3024C25.1815 60.8245 25.0035 61.2435 24.8766 61.5304C24.868 61.5499 24.8596 61.5687 24.8515 61.5869C24.8316 61.5878 24.811 61.5887 24.7898 61.5895C24.4763 61.6024 24.0212 61.6144 23.4615 61.6107C22.3403 61.6033 20.8076 61.5329 19.1559 61.2821C15.8021 60.773 12.1773 59.5534 10.3368 56.8498C8.98292 54.8611 9.43807 52.5049 10.8394 51.1547C11.5344 50.4851 12.4592 50.0666 13.521 50.0615C14.5828 50.0564 15.8431 50.4653 17.1949 51.562Z" stroke="#FAA21E" stroke-width="1.43575" stroke-linejoin="round"/>
<path d="M16.8106 43.6456C15.3562 45.5535 16.8216 49.2071 17.5753 50.9883C16.1945 49.6341 13.3324 46.9313 11.0242 47.5849C12.4786 45.6771 11.5438 43.4768 11.1036 41.4822C12.798 42.623 14.5024 44.2993 16.8106 43.6456Z" fill="#D0333D" stroke="#FAA21E" stroke-width="0.758621"/>
<path d="M22.9335 58.6955C24.6889 57.5005 24.7265 54.9511 23.4766 53.1151C22.2267 51.2791 19.841 50.3795 18.0856 51.5746C16.3302 52.7696 16.2926 55.319 17.5425 57.155C18.7924 58.991 21.1781 59.8906 22.9335 58.6955Z" fill="#A272E4" stroke="#FAA21E" stroke-width="1.43575"/>
<ellipse cx="18.902" cy="54.3992" rx="0.794862" ry="1.28776" transform="rotate(-12.4667 18.902 54.3992)" fill="#FEFEFE"/>
<path d="M22.9335 58.6955L24.5495 61.0691M22.9972 44.757L21.2673 51.1454M9.94219 53.6448L16.52 54.3773M26.6834 55.2741L24.0952 55.2993M19.3479 58.5312L18.3757 60.93M11.5833 58.6066L17.1386 56.5615M23.0727 52.5217L26.4186 48.5069" stroke="#FAA21E" stroke-width="1.43575"/>
<path d="M24.8894 61.7354L51 99.4999" stroke="#FAA21E" stroke-width="2" stroke-linecap="round"/>
<circle cx="24.082" cy="64.0998" r="1.5" transform="rotate(-34.2467 24.082 64.0998)" stroke="#FAA21E"/>
<circle cx="27.3886" cy="61.8488" r="1.5" transform="rotate(-34.2467 27.3886 61.8488)" stroke="#FAA21E"/>
<ellipse cx="5.51957" cy="4.56994" rx="5.51957" ry="4.56994" transform="matrix(-0.864238 0.503084 0.503084 0.864238 48.6125 86.6986)" fill="#CE4317"/>
<ellipse cx="5.51957" cy="4.56994" rx="5.51957" ry="4.56994" transform="matrix(-0.864238 0.503084 0.503084 0.864238 48.6125 86.6986)" fill="white" fill-opacity="0.6"/>
<path d="M40.9733 91.3549L19.9999 101.069L32.6137 104.214L45 99L40.9733 91.3549Z" fill="#546DDB"/>
<path d="M40.9733 91.3549L19.9999 101.069L32.6137 104.214L45 99L40.9733 91.3549Z" fill="white" fill-opacity="0.4"/>
</g>
<defs>
<clipPath id="clip0_4649_6850">
<rect width="100" height="100" fill="white"/>
</clipPath>
</defs>
</svg>
