<svg width="100" height="100" viewBox="0 0 100 100" fill="none" xmlns="http://www.w3.org/2000/svg">
<g clip-path="url(#clip0_4648_6714)">
<path d="M8 100C10.5 88.1667 19 62.6154 22 61C27.2 58.2 74.8 59.4 78 61C81.2 62.6 88.6667 87.6667 92 100L8 100Z" fill="#7445B8"/>
<path d="M8 100C10.5 88.1667 19 62.6154 22 61C27.2 58.2 74.8 59.4 78 61C81.2 62.6 88.6667 87.6667 92 100L8 100Z" fill="white" fill-opacity="0.6"/>
<path d="M19 66C19.3333 64.8333 21 61.5 23 59.5C41 59 74.8 59 76 59C77.2 59 80.3333 63.5 81 66C71.5 69 59.5 82 50 89.5C44.5 84.5 28 69 19 66Z" fill="#7445B8"/>
<path d="M19 66C19.3333 64.8333 21 61.5 23 59.5C41 59 74.8 59 76 59C77.2 59 80.3333 63.5 81 66C71.5 69 59.5 82 50 89.5C44.5 84.5 28 69 19 66Z" fill="white" fill-opacity="0.4"/>
<path d="M37 100V71H63V100H37Z" fill="#D0333D"/>
<path d="M37 100V71H63V100H37Z" fill="black" fill-opacity="0.4"/>
<path d="M42 100V71H58V100H42Z" fill="#FAA21E"/>
<path d="M42 100V71H58V100H42Z" fill="black" fill-opacity="0.1"/>
<ellipse cx="66.2215" cy="35.9636" rx="3.04408" ry="2.76706" transform="rotate(3.81754 66.2215 35.9636)" fill="#FAA21E"/>
<ellipse cx="66.2215" cy="35.9636" rx="3.04408" ry="2.76706" transform="rotate(3.81754 66.2215 35.9636)" fill="white" fill-opacity="0.4"/>
<ellipse cx="33.6565" cy="36.4607" rx="3.04408" ry="2.76706" transform="rotate(-15 33.6565 36.4607)" fill="#FAA21E"/>
<ellipse cx="33.6565" cy="36.4607" rx="3.04408" ry="2.76706" transform="rotate(-15 33.6565 36.4607)" fill="white" fill-opacity="0.4"/>
<path d="M49.732 50C36.0118 50 13.8606 56.3333 6 59C9.21569 59.5 20.2484 61.3273 25.0784 64C30.5 67 44.5 78.5 50 85C55.5 79 69.5621 66.5 74.3856 64C78.2444 62 90.0697 59.5 94 59C85.9608 56.3333 63.4523 50 49.732 50Z" fill="#D0333D"/>
<path d="M49.732 50C36.0118 50 13.8606 56.3333 6 59C9.21569 59.5 20.2484 61.3273 25.0784 64C30.5 67 44.5 78.5 50 85C55.5 79 69.5621 66.5 74.3856 64C78.2444 62 90.0697 59.5 94 59C85.9608 56.3333 63.4523 50 49.732 50Z" fill="black" fill-opacity="0.2"/>
<path d="M49.9831 50C37.0493 50 20.41 54.5 13 56.9828C16.0313 57.4483 23.2326 58.8448 28.0828 60.7069C34.2102 63.0593 42.6943 70.0172 50.2357 77C57.3057 69.5517 68.7509 62.569 72.3885 60.7069C76.0261 58.8448 83.295 57.4483 87 56.9828C79.4216 54.5 62.9168 50 49.9831 50Z" fill="#FAA21E"/>
<path d="M49.9908 49C42.9996 49 34.0054 51.158 30 52.5C31 54 34 56.5 37 58C40.2249 59.6125 44.9908 61 49.9908 61C56 61 61.0243 58.9879 63 58C65 57 69 54 70 52.5C65.9036 51.158 56.9821 49 49.9908 49Z" fill="#C57A09"/>
<ellipse cx="50" cy="34.5" rx="17" ry="15.5" fill="#FAA21E"/>
<ellipse cx="50" cy="34.5" rx="17" ry="15.5" fill="white" fill-opacity="0.4"/>
<ellipse cx="58" cy="35" rx="2" ry="3.5" fill="#7445B8"/>
<ellipse cx="2" cy="3.5" rx="2" ry="3.5" transform="matrix(-1 0 0 1 44 31.5)" fill="#7445B8"/>
<ellipse cx="42.5" cy="30.5" rx="3.5" ry="1.5" transform="rotate(12.3137 42.5 30.5)" fill="#CE4317"/>
<ellipse cx="42.5" cy="30.5" rx="3.5" ry="1.5" transform="rotate(12.3137 42.5 30.5)" fill="black" fill-opacity="0.15"/>
<ellipse cx="57.5001" cy="30.5" rx="3.5" ry="1.5" transform="rotate(-10.4782 57.5001 30.5)" fill="#CE4317"/>
<ellipse cx="57.5001" cy="30.5" rx="3.5" ry="1.5" transform="rotate(-10.4782 57.5001 30.5)" fill="black" fill-opacity="0.15"/>
<path d="M29.1704 27.0205C30.7494 23.5515 34.9271 23.7684 36.5719 24.3104C35.914 26.1171 34 30.663 34 33.2647C34 36.5169 33.9395 41.4251 39 42.5294C43.9675 43.6135 47.5 39.4412 49.8946 38.9265C53 39.9559 54.5722 43.7687 60 42.5294C65.4278 41.2902 66 35.9748 66 33.2647C66 31.0966 64.0398 26.2978 63.2174 24.3104C64.8622 24.3104 68.6452 24.8524 70.6189 27.0205C72.5927 29.1886 71.7703 32.6214 71.1124 34.0668C72.0993 35.3316 73.7769 38.403 72.5927 40.5711C71.4084 42.7392 69.1386 43.6426 68.1518 43.8233C68.4807 45.63 68.6452 49.5688 66.6715 50.8696C64.6977 52.1705 62.5595 51.4116 61.7371 50.8696C61.7371 52.315 61.2437 55.4226 59.2699 56.2899C57.2962 57.1571 54.829 55.2058 53.8421 54.1218C53.6777 55.7478 52.6579 59 49.8946 59C47.1314 59 46.1116 55.7478 45.9472 54.1218C45.2892 55.3865 43.2826 57.5907 40.5194 56.2899C37.7561 54.989 37.0653 52.1343 37.0653 50.8696C36.0784 51.5923 33.6113 52.4957 31.6375 50.3276C29.6638 48.1595 30.1572 45.088 30.6507 43.8233C29.8283 44.004 27.9862 43.6065 27.1967 40.5711C26.4073 37.5358 28.1836 34.9702 29.1704 34.0668C28.5125 33.1635 27.5914 30.4895 29.1704 27.0205Z" fill="#CE4317"/>
<path d="M29.1704 27.0205C30.7494 23.5515 34.9271 23.7684 36.5719 24.3104C35.914 26.1171 34 30.663 34 33.2647C34 36.5169 33.9395 41.4251 39 42.5294C43.9675 43.6135 47.5 39.4412 49.8946 38.9265C53 39.9559 54.5722 43.7687 60 42.5294C65.4278 41.2902 66 35.9748 66 33.2647C66 31.0966 64.0398 26.2978 63.2174 24.3104C64.8622 24.3104 68.6452 24.8524 70.6189 27.0205C72.5927 29.1886 71.7703 32.6214 71.1124 34.0668C72.0993 35.3316 73.7769 38.403 72.5927 40.5711C71.4084 42.7392 69.1386 43.6426 68.1518 43.8233C68.4807 45.63 68.6452 49.5688 66.6715 50.8696C64.6977 52.1705 62.5595 51.4116 61.7371 50.8696C61.7371 52.315 61.2437 55.4226 59.2699 56.2899C57.2962 57.1571 54.829 55.2058 53.8421 54.1218C53.6777 55.7478 52.6579 59 49.8946 59C47.1314 59 46.1116 55.7478 45.9472 54.1218C45.2892 55.3865 43.2826 57.5907 40.5194 56.2899C37.7561 54.989 37.0653 52.1343 37.0653 50.8696C36.0784 51.5923 33.6113 52.4957 31.6375 50.3276C29.6638 48.1595 30.1572 45.088 30.6507 43.8233C29.8283 44.004 27.9862 43.6065 27.1967 40.5711C26.4073 37.5358 28.1836 34.9702 29.1704 34.0668C28.5125 33.1635 27.5914 30.4895 29.1704 27.0205Z" fill="black" fill-opacity="0.3"/>
<path d="M33 13L39 23H61.5L67 13C66.1667 11.6667 63.8386 9.08468 59.5 8.00001C55.5 7 51.1667 7.49999 50 8.99998C48.5 7.49998 44.5 7.20001 40.5 8.00001C36.5 8.80001 33.8333 11.6667 33 13Z" fill="#D0333D"/>
<path d="M50 24.5C47.2 24.5 39.3333 25.1667 36 25.5L31 9C31 9 38.5 22.5 43.5 21.5C48.4614 20.5077 49 11 50 5C51 11 51.4 20.7 57 21.5C62.6 22.3 69 9 69 9L64 25.5C60.8333 25 52.8 24.5 50 24.5Z" fill="#FAA21E"/>
<path d="M48.5 2.5C49.3993 1.56169 49.7234 1.01186 50 0C50.194 0.957868 50.5772 1.50751 51.5 2.5C50.6726 3.41782 50.3594 3.96882 50 5C49.6556 3.92463 49.3567 3.36855 48.5 2.5Z" fill="#FAA21E"/>
<path d="M48.5 2.5C49.3993 1.56169 49.7234 1.01186 50 0C50.194 0.957868 50.5772 1.50751 51.5 2.5C50.6726 3.41782 50.3594 3.96882 50 5C49.6556 3.92463 49.3567 3.36855 48.5 2.5Z" fill="white" fill-opacity="0.2"/>
<path d="M68.0892 6.99014C69.254 6.41337 69.7456 6.00641 70.3497 5.14881C70.2065 6.11559 70.3801 6.76275 70.9106 8.00981C69.8205 8.59175 69.3387 9.00349 68.6502 9.85114C68.6919 8.72275 68.5997 8.09815 68.0892 6.99014Z" fill="#FAA21E"/>
<path d="M68.0892 6.99014C69.254 6.41337 69.7456 6.00641 70.3497 5.14881C70.2065 6.11559 70.3801 6.76275 70.9106 8.00981C69.8205 8.59175 69.3387 9.00349 68.6502 9.85114C68.6919 8.72275 68.5997 8.09815 68.0892 6.99014Z" fill="white" fill-opacity="0.2"/>
<path d="M29.2055 8.41681C29.704 7.21648 29.8069 6.58662 29.6982 5.54327C30.226 6.36584 30.7822 6.73938 32.0018 7.33026C31.563 8.48545 31.4706 9.11247 31.5091 10.2038C30.7987 9.32617 30.3186 8.91612 29.2055 8.41681Z" fill="#FAA21E"/>
<path d="M29.2055 8.41681C29.704 7.21648 29.8069 6.58662 29.6982 5.54327C30.226 6.36584 30.7822 6.73938 32.0018 7.33026C31.563 8.48545 31.4706 9.11247 31.5091 10.2038C30.7987 9.32617 30.3186 8.91612 29.2055 8.41681Z" fill="white" fill-opacity="0.2"/>
<path d="M40.0572 74.5149C38.7886 71.9776 39.1762 67.1144 39 65H55.9154C55.9154 67.1144 56.444 71.3433 54.8582 74.5149C53.3631 77.5052 49.7483 79.0962 48.5149 79.801V90.3731C49.5721 90.5493 53.2724 91.1132 53.2724 91.959C53.2724 93.0162 49.0435 93.5448 47.4577 93.5448C45.8719 93.5448 41.643 93.0162 41.643 91.959C41.643 91.1132 44.2861 90.5493 46.4005 90.3731V79.801C44.8147 79.0962 41.3259 77.0522 40.0572 74.5149Z" fill="#FAA21E"/>
<path d="M40.0572 74.5149C38.7886 71.9776 39.1762 67.1144 39 65H55.9154C55.9154 67.1144 56.444 71.3433 54.8582 74.5149C53.3631 77.5052 49.7483 79.0962 48.5149 79.801V90.3731C49.5721 90.5493 53.2724 91.1132 53.2724 91.959C53.2724 93.0162 49.0435 93.5448 47.4577 93.5448C45.8719 93.5448 41.643 93.0162 41.643 91.959C41.643 91.1132 44.2861 90.5493 46.4005 90.3731V79.801C44.8147 79.0962 41.3259 77.0522 40.0572 74.5149Z" fill="black" fill-opacity="0.4"/>
<ellipse cx="5.83857" cy="4.90576" rx="5.83857" ry="4.90576" transform="matrix(-0.992557 0.121779 0.121779 0.992557 52.1938 79.0911)" fill="#FAA21E"/>
<ellipse cx="5.83857" cy="4.90576" rx="5.83857" ry="4.90576" transform="matrix(-0.992557 0.121779 0.121779 0.992557 52.1938 79.0911)" fill="white" fill-opacity="0.4"/>
<path d="M43.0001 79.5L10.5001 89.5C8.49987 90.5 7.20007 96.3 8.00007 99.5C8.80007 102.7 34.8333 101.333 45.5 100L43.0001 79.5Z" fill="#7445B8"/>
<path d="M43.0001 79.5L10.5001 89.5C8.49987 90.5 7.20007 96.3 8.00007 99.5C8.80007 102.7 34.8333 101.333 45.5 100L43.0001 79.5Z" fill="white" fill-opacity="0.8"/>
</g>
<defs>
<clipPath id="clip0_4648_6714">
<rect width="100" height="100" fill="white"/>
</clipPath>
</defs>
</svg>
