<?xml version="1.0" encoding="utf-8"?><svg fill="none" viewBox="0 0 100 100" width="100" height="100" xmlns="http://www.w3.org/2000/svg"><path d="M8 71V44h80v27H8Z" fill="#898989"/><path d="M8 71V44h80v27H8Z" fill="#fff" fill-opacity=".4"/><path d="M8 71V44h26v27H8Z" fill="#898989"/><path d="M8 71V44h26v27H8Z" fill="#fff" fill-opacity=".2"/><path d="M88 44v27H66V44h22Z" fill="#898989"/><path d="M88 44v27H66V44h22Z" fill="#fff" fill-opacity=".2"/><path d="M66 44v24l18.5.912V50.5L66 44ZM66 44H34V23h32v21Z" fill="#898989"/><path d="M66 44H34V23h32v21Z" fill="#fff" fill-opacity=".4"/><path d="M66 23H34l32 11V23Z" fill="#898989"/><path d="M66 23H34l32 11V23Z" fill="#fff" fill-opacity=".2"/><path d="M34 23v-8h4v3h3v-3h4v3h3v-3h4v3h3v-3h4v3h3v-3h4v8H34Z" fill="#898989"/><path d="M34 23v-8h4v3h3v-3h4v3h3v-3h4v3h3v-3h4v3h3v-3h4v8H34Z" fill="#fff" fill-opacity=".6"/><path d="M50 15V4" stroke="#898989"/><path d="M50 15V4" stroke="#fff" stroke-opacity=".6"/><path d="M0 48v-8h4v3h3v-3h4v3h3v-3h4v8l-2 3H2l-2-3Z" fill="#7445B8"/><path d="M0 48v-8h4v3h3v-3h4v3h3v-3h4v8l-2 3H2l-2-3Z" fill="#fff" fill-opacity=".2"/><path d="m2 51-2-3h18l-2 3H2ZM30 58v-8h4v3h3v-3h4v3h3v-3h4v3h3v-3h4v3h3v-3h4v3h3v-3h4v8H30Z" fill="#7445B8"/><path d="M30 58v-8h4v3h3v-3h4v3h3v-3h4v3h3v-3h4v3h3v-3h4v3h3v-3h4v8H30Z" fill="#fff" fill-opacity=".2"/><path d="M2 90V51h14v39H2Z" fill="#7445B8"/><path fill="#7445B8" d="M8 88h3v2H8z"/><path fill="#fff" fill-opacity=".2" d="M8 88h3v2H8z"/><path fill="#7445B8" d="M9 78h4v3H9z"/><path fill="#fff" fill-opacity=".2" d="M9 78h4v3H9z"/><path fill="#7445B8" d="M4 73h4v2H4z"/><path fill="#fff" fill-opacity=".2" d="M4 73h4v2H4z"/><path fill="#7445B8" d="M12 62h3v2h-3z"/><path fill="#fff" fill-opacity=".2" d="M12 62h3v2h-3z"/><path d="M84 90V51h14v39H84Z" fill="#7445B8"/><path fill="#898989" d="M90 56h3v5h-3z"/><path fill="#000" fill-opacity=".6" d="M90 56h3v5h-3z"/><path d="M16 88V64h14v24H16ZM69 88V64h15v24H69Z" fill="#7445B8"/><path d="M69 88V64h15v24H69Z" fill="#000" fill-opacity=".2"/><path d="M69 64v24h15V69.588L69 64Z" fill="#7445B8"/><path d="M69 64v24h15V69.588L69 64Z" fill="#000" fill-opacity=".4"/><path d="M84 76v14h14v-8.412L84 76Z" fill="#7445B8"/><path d="M84 76v14h14v-8.412L84 76Z" fill="#000" fill-opacity=".2"/><path d="M30 92V58h39v34H30Z" fill="#7445B8"/><path d="M30 92V58h39v34H30Z" fill="#fff" fill-opacity=".2"/><path d="M41.389 92V75.815C41.666 73.543 43.714 69 49.694 69c5.98 0 8.03 4.543 8.306 6.815V92H41.389Z" fill="#898989"/><path d="M41.389 92V75.815C41.666 73.543 43.714 69 49.694 69c5.98 0 8.03 4.543 8.306 6.815V92H41.389Z" fill="#000" fill-opacity=".8"/><path fill="#898989" d="M7 56h3v5H7z"/><path fill="#000" fill-opacity=".6" d="M7 56h3v5H7z"/><path fill="#898989" d="M7 67h3v5H7z"/><path fill="#000" fill-opacity=".6" d="M7 67h3v5H7z"/><path fill="#898989" d="M37 56h3v5h-3z"/><path fill="#000" fill-opacity=".6" d="M37 56h3v5h-3z"/><path fill="#898989" d="M48 56h3v5h-3z"/><path fill="#000" fill-opacity=".6" d="M48 56h3v5h-3z"/><path fill="#898989" d="M59 56h3v5h-3z"/><path fill="#000" fill-opacity=".6" d="M59 56h3v5h-3z"/><path fill="#898989" d="M39 26h3v5h-3z"/><path fill="#000" fill-opacity=".2" d="M39 26h3v5h-3z"/><path fill="#898989" d="M48 26h3v5h-3z"/><path fill="#000" fill-opacity=".2" d="M48 26h3v5h-3z"/><path fill="#898989" d="M57 26h3v5h-3z"/><path fill="#000" fill-opacity=".4" d="M57 26h3v5h-3z"/><path d="M16 51H2l14 5.5V51Z" fill="#7445B8"/><path d="M16 51H2l14 5.5V51Z" fill="#000" fill-opacity=".2"/><path d="M16 64.206V88h14V69.794l-14-5.588Z" fill="#7445B8"/><path d="M16 64.206V88h14V69.794l-14-5.588Z" fill="#000" fill-opacity=".2"/><path d="M51 26h-3v2l3 1v-3Z" fill="#898989"/><path d="M51 26h-3v2l3 1v-3Z" fill="#000" fill-opacity=".4"/><path d="M82 48v-8h4v3h3v-3h4v3h3v-3h4v8l-2 3H84l-2-3Z" fill="#7445B8"/><path d="M82 48v-8h4v3h3v-3h4v3h3v-3h4v8l-2 3H84l-2-3Z" fill="#fff" fill-opacity=".2"/><path d="m84 51-2-3h18l-2 3H84ZM98 51H84l14 5.5V51Z" fill="#7445B8"/><path d="M98 51H84l14 5.5V51Z" fill="#000" fill-opacity=".2"/><path fill="#898989" d="M39 37h4v3h-4z"/><path fill="#fff" fill-opacity=".6" d="M39 37h4v3h-4z"/><path fill="#898989" d="M44 44h5v2h-5z"/><path fill="#fff" fill-opacity=".6" d="M44 44h5v2h-5z"/><path fill="#898989" d="M50 34h3v2h-3z"/><path fill="#fff" fill-opacity=".6" d="M50 34h3v2h-3z"/><path fill="#898989" d="M58 40h4v2h-4z"/><path fill="#fff" fill-opacity=".6" d="M58 40h4v2h-4z"/><path fill="#7445B8" d="M30 65h4v3h-4z"/><path fill="#fff" fill-opacity=".4" d="M30 65h4v3h-4z"/><path fill="#7445B8" d="M37 72h3v2h-3z"/><path fill="#fff" fill-opacity=".4" d="M37 72h3v2h-3z"/><path fill="#7445B8" d="M63 90h3v2h-3z"/><path fill="#fff" fill-opacity=".4" d="M63 90h3v2h-3z"/><path fill="#7445B8" d="M42 63h4v2h-4z"/><path fill="#fff" fill-opacity=".4" d="M42 63h4v2h-4z"/><path fill="#7445B8" d="M64 80h4v3h-4z"/><path fill="#fff" fill-opacity=".4" d="M64 80h4v3h-4z"/><path fill="#7445B8" d="M60 75h3v2h-3z"/><path fill="#fff" fill-opacity=".4" d="M60 75h3v2h-3z"/><path fill="#7445B8" d="M33 82h4v4h-4z"/><path fill="#fff" fill-opacity=".4" d="M33 82h4v4h-4z"/><path fill="#7445B8" d="M64 67h4v2h-4z"/><path fill="#fff" fill-opacity=".4" d="M64 67h4v2h-4z"/><path fill="#7445B8" d="M90 67h4v2h-4z"/><path fill="#fff" fill-opacity=".2" d="M90 67h4v2h-4z"/><path d="M11.143 33c-.857 0-1.714-.667-2.143-1v2c.429.333 1.286 1 2.143 1 .857 0 1.286-1 2.571-1 1.286 0 1.715 1 2.572 1 .685 0 1.428-.667 1.714-1l-.429-.5L18 32c-.286.333-.857 1-1.714 1S15 32 13.714 32c-1.285 0-1.714 1-2.571 1Z" fill="#FAA21E"/><path d="M11.059 33c-.824 0-1.647-.667-2.059-1v2c.412.333 1.235 1 2.059 1v-2ZM16 33c-.823 0-1.235-1-2.47-1h-.014l.013 2c1.236 0 1.648 1 2.471 1v-2Z" fill="#C57A09"/><path d="M93.143 33c-.857 0-1.714-.667-2.143-1v2c.429.333 1.286 1 2.143 1 .857 0 1.286-1 2.571-1 1.286 0 1.715 1 2.572 1 .685 0 1.428-.667 1.714-1l-.429-.5L100 32c-.286.333-.857 1-1.714 1S97 32 95.714 32c-1.285 0-1.714 1-2.571 1Z" fill="#FAA21E"/><path d="M93.059 33c-.824 0-1.647-.667-2.059-1v2c.412.333 1.235 1 2.059 1v-2ZM98 33c-.823 0-1.235-1-2.47-1h-.014l.013 2c1.236 0 1.648 1 2.471 1v-2Z" fill="#C57A09"/><path d="M9 40v-8" stroke="#898989"/><path d="M9 40v-8" stroke="#fff" stroke-opacity=".6"/><path d="M53 5c-1 0-2-.667-2.5-1v2c.5.333 1.5 1 2.5 1s1.5-1 3-1 2 1 3 1c.8 0 1.667-.667 2-1l-.5-.5L61 4c-.333.333-1 1-2 1s-1.5-1-3-1-2 1-3 1Z" fill="#FAA21E"/><path d="M53 5c-1 0-2-.667-2.5-1v2c.5.333 1.5 1 2.5 1V5ZM59 5c-1 0-1.5-1-3-1h-.016L56 6c1.5 0 2 1 3 1V5Z" fill="#C57A09"/><path d="M91 40v-8" stroke="#898989"/><path d="M91 40v-8" stroke="#fff" stroke-opacity=".6"/><path fill="#7445B8" d="M85 53h3v3h-3z"/><path fill="#fff" fill-opacity=".2" d="M85 53h3v3h-3z"/><path fill="#7445B8" d="M93 73h3v2h-3z"/><path fill="#fff" fill-opacity=".2" d="M93 73h3v2h-3z"/><path fill="#7445B8" d="M88 85h4v3h-4z"/></svg>