<svg width="100" height="100" viewBox="0 0 100 100" fill="none" xmlns="http://www.w3.org/2000/svg">
<g clip-path="url(#clip0_4692_7700)">
<path d="M36.6871 42.8935C42.0712 48.2775 41.1738 56.7275 40.0522 60.2795L41.7347 63.6445L47.3431 56.3536L43.4172 55.2319C44.7308 54.3285 46.7822 54.6711 47.9039 54.6711C46.7822 53.5494 45.479 52.6735 43.978 52.4277C45.2846 51.3766 49.0256 52.9886 48.4647 52.4277L48.4647 52.4277C47.9039 51.8669 46.2214 50.1844 44.5389 49.6235C45.592 48.5751 49.5864 49.6235 49.0256 49.0627C48.4647 48.5019 45.8576 46.9627 43.978 46.8194C45.4198 45.8978 49.0256 46.8194 48.4647 46.2585C47.9039 45.6977 45.2388 44.4708 43.4172 44.0152C44.1672 43.0679 47.9039 43.4543 47.3431 42.8935C46.7822 42.3326 44.004 41.4153 42.2955 41.211C43.267 40.1971 46.7822 40.6501 46.2214 40.0893C45.6605 39.5284 42.2535 38.1641 40.0522 37.8459L41.1738 29.9942L37.8088 33.92C38.0403 30.3808 40.613 24.9466 40.0522 24.9466C39.4913 24.9466 37.3267 27.4241 36.1263 29.4333C36.5263 26.148 39.4913 21.0207 38.9305 21.0207C38.3696 21.0207 35.9856 22.9616 34.4438 24.9466C35.2656 21.5799 38.3696 17.0949 37.8088 17.0949C37.248 17.0949 34.9399 18.8636 33.3221 21.0207C34.0793 17.8033 37.8088 13.169 37.248 13.169C36.6871 13.169 33.3107 15.4866 31.0787 17.6557C31.9504 14.9508 35.0046 10.9256 34.4438 10.9256C33.8829 10.9256 30.5462 13.7436 28.2745 15.9732C29.3017 12.5486 32.7612 8.12144 32.2004 8.12144C31.6396 8.12144 27.3711 11.157 24.9095 14.2907C25.2959 10.3873 28.8354 4.75641 28.2745 4.75641C27.7137 4.75641 23.6632 9.1896 21.5445 13.169C21.456 9.80675 23.227 4.75641 22.6661 4.75641C22.1053 4.75641 19.8619 9.24312 19.3011 10.9256C18.6991 12.7315 17.9925 17.8427 18.1794 20.4599C16.4969 17.0949 16.4969 10.3648 15.9361 10.3648C15.3752 10.3648 14.8144 15.9732 16.4969 23.2641C15.046 20.1547 12.571 17.6557 12.0102 17.6557C11.4493 17.6557 14.8781 22.1944 16.4969 26.0683C14.1076 24.5465 11.4493 23.2641 10.3277 23.2641C9.20599 23.2641 17.5064 29.0968 19.3011 32.2375C21.5445 36.1634 20.8512 38.9676 22.1053 38.9676C23.7878 38.9676 25.4703 41.7718 27.1528 41.211C28.8354 40.6501 31.3031 37.5094 36.6871 42.8935Z" fill="#7445B8"/>
<path d="M22.4428 46.9135C21.0817 47.8037 19.4506 48.7682 18.7287 49.037C19.862 49.1086 22.2085 48.8212 23.181 48.5638C24.3575 48.2523 26.0384 46.5431 26.2173 45.3598C26.1284 45.7792 25.3037 46.337 24.8623 46.3951C25.7624 44.7752 26.1944 43.533 26.0463 41.7482C25.8375 43.5721 23.9457 45.9306 22.4428 46.9135Z" fill="#7445B8"/>
<path d="M22.4428 46.9135C21.0817 47.8037 19.4506 48.7682 18.7287 49.037C19.862 49.1086 22.2085 48.8212 23.181 48.5638C24.3575 48.2523 26.0384 46.5431 26.2173 45.3598C26.1284 45.7792 25.3037 46.337 24.8623 46.3951C25.7624 44.7752 26.1944 43.533 26.0463 41.7482C25.8375 43.5721 23.9457 45.9306 22.4428 46.9135Z" fill="white" fill-opacity="0.6"/>
<path d="M65.1034 64.2197C61.8504 65.032 58.5835 66.5906 56.2126 69.5542L57.9908 70.8159L58.0835 70.7433C60.4039 68.9282 62.0065 67.6746 65.1034 66.5906C70.2137 64.802 75.6945 69.6862 78.0653 72.0571C80.4362 74.428 86.0294 78.1782 89.843 76.5438C93.7688 74.8613 94.8905 70.5021 90.9646 66.5906C92.6473 71.4963 92.0863 73.7396 88.7213 74.8613C85.3475 75.9859 81.0289 72.5178 78.0653 69.5542C75.1017 66.5906 69.6529 63.0837 65.1034 64.2197Z" fill="#7445B8"/>
<path d="M91.8083 68.011C93.3732 67.2799 92.8219 61.6991 89.6906 60.6154C88.5644 60.2256 88.3329 59.8861 87.2866 59.2611C86.6568 58.8849 89.2036 61.6513 88.6717 61.2819C87.6304 60.5588 82.4514 57.9968 82.079 57.6921C83.5707 59.2457 84.7761 61.1963 85.6151 63.2816C86.9022 66.4805 90.2434 68.7421 91.8083 68.011Z" fill="#7445B8"/>
<path d="M61.8208 81.5914C61.0362 81.3727 64.0336 77.3381 64.6381 75.6747L51.7388 77.918C51.8792 79.4368 53.9822 84.0872 55.1039 84.6481C56.3916 85.292 61.8611 85.4096 62.3948 85.7697C62.9286 86.1299 60.9686 88.4232 60.3352 89.9377C59.7017 91.4522 54.7819 93.2165 55.1039 94.1823C55.6648 95.8648 62.7538 95.4535 63.5506 94.7432C63.8905 94.4403 63.3641 93.9275 63.5506 92.4998C63.7371 91.0721 66.3209 86.4968 66.3208 85.209C66.3206 83.5265 62.8015 81.8648 61.8208 81.5914Z" fill="#7445B8"/>
<path d="M72.4771 69.8138C70.3772 67.714 65.9924 67.699 63.6489 66.2751L60.1389 73.4896C60.5661 74.7219 62.4121 77.6954 64.6256 79.9089C67.4298 82.7131 70.6985 85.5173 72.4771 85.5173C74.2557 85.5173 78.2624 86.615 79.3474 86.2103C80.3126 88.2777 81.4506 92.18 81.4506 93.9299C81.4506 97.0146 76.9641 97.8558 78.0856 98.9775C78.7506 99.6426 81.9557 99.8759 83.694 99.5383C85.8669 99.1163 86.7706 98.2561 85.9374 96.1733C84.8157 93.3691 84.8158 84.3956 82.5722 83.8348C80.9609 83.432 78.6464 79.3481 75.8422 79.9089C75.0748 80.0624 75.2814 72.618 72.4771 69.8138Z" fill="#7445B8"/>
<path d="M72.4771 69.8138C70.3772 67.714 65.9924 67.699 63.6489 66.2751L60.1389 73.4896C60.5661 74.7219 62.4121 77.6954 64.6256 79.9089C67.4298 82.7131 70.6985 85.5173 72.4771 85.5173C74.2557 85.5173 78.2624 86.615 79.3474 86.2103C80.3126 88.2777 81.4506 92.18 81.4506 93.9299C81.4506 97.0146 76.9641 97.8558 78.0856 98.9775C78.7506 99.6426 81.9557 99.8759 83.694 99.5383C85.8669 99.1163 86.7706 98.2561 85.9374 96.1733C84.8157 93.3691 84.8158 84.3956 82.5722 83.8348C80.9609 83.432 78.6464 79.3481 75.8422 79.9089C75.0748 80.0624 75.2814 72.618 72.4771 69.8138Z" fill="white" fill-opacity="0.2"/>
<path d="M31.2675 81.3369C33.3848 83.1711 36.5781 82.8004 39.0906 80.9197C40.911 79.3788 38.9668 76.4014 38.3268 75.0982C37.6869 73.795 33.1199 71.486 29.5484 71.3262C26.9284 71.2089 25.796 74.3585 21.877 74.5916L20.2973 76.371C20.2973 76.371 23.4896 76.9392 25.1218 77.6328C26.0102 78.0104 28.0499 78.5497 31.2675 81.3369Z" fill="#7445B8"/>
<path d="M18.6996 77.8407L17.2015 76.3439C18.0804 76.1965 19.1875 76.279 19.7583 76.3215C20.3176 76.3632 20.9981 76.5728 22.3456 76.8862L21.9629 74.4754C19.9073 74.3221 17.0044 74.374 16.3451 74.9628L15.0085 74.8632L12.572 74.6816L9.65803 75.9405L10.0522 78.9671L10.6354 76.6926L12.7409 75.9787L14.7963 76.1319L12.0451 77.3884L10.4846 78.9108L11.6872 81.3923L11.462 79.6629L12.5901 78.1968L15.2061 77.0333L13.3977 78.6594L12.7134 80.2956L14.8254 82.1402L13.8319 80.379L14.5665 79.215L16.8785 77.2317L17.4588 78.4421L17.5714 79.3068L16.8756 80.7165L18.4925 79.6265L18.6996 77.8407Z" fill="#C57A09"/>
<path d="M51.3735 47.7989C51.2716 52.8765 47.2378 57.3544 37.4478 59.8805L41.5022 64.2024C47.308 68.6482 43.7632 63.1894 44.9032 63.9353C50.6483 67.6948 47.1264 62.9474 47.3455 62.582C48.7434 63.7064 51.2905 64.2978 51.6565 63.9599C52.0226 63.6219 50.9832 61.9407 50.7335 61.6277C51.693 62.1561 54.3812 63.7016 54.8861 63.4964C55.3909 63.2912 54.6446 61.968 54.1345 61.3606C55.2127 61.9089 58.616 62.7189 59.0051 62.2292C59.3943 61.7395 57.5299 59.9846 56.9646 59.7999C57.8542 59.5765 60.4999 60.2745 60.889 59.7847C61.2782 59.295 59.4487 58.0141 58.8352 57.7108C60.0885 57.4777 63.585 58.11 63.3537 57.5409C63.1224 56.9718 60.559 55.682 60.1471 55.5731C61.2952 55.3827 65.0993 56.1144 65.1204 55.4427C65.1415 54.771 61.5711 52.8514 60.9488 52.828C62.1539 52.4764 66.3768 53.2862 66.1455 52.7171C65.9142 52.148 62.145 50.1904 61.7331 50.0815C62.8812 49.8911 68.2914 50.7625 68.3125 50.0908C68.3336 49.4191 63.5795 48.0114 63.0625 47.9453C64.1624 47.6364 69.9246 47.9792 70.0135 46.9582C70.1023 45.9371 64.0182 45.2136 64.0182 45.2136C63.8418 45.0043 67.4358 45.5891 69.5123 44.1207C71.0789 43.013 61.265 42.7223 59.6374 42.0177C61.3622 41.6048 67.6006 41.3743 67.2148 40.4251C66.9835 39.856 62.4304 39.9676 62.0667 39.9772C62.8599 39.5167 68.6897 39.2177 68.9632 38.4434C69.2368 37.6691 64.6119 38.2004 64.0466 38.0157C64.8398 37.5552 71.1703 36.5006 71.4438 35.7263C71.7173 34.9521 66.2531 35.5355 64.8465 35.6927C66.3188 35.0943 72.0335 34.01 72.8118 33.0306C73.5901 32.0511 68.9081 33.0206 65.8389 33.105C70.1228 32.0004 75.424 29.7415 74.9402 29.275C74.4565 28.8085 70.7578 29.8038 67.3012 30.3737C70.8888 29.2522 77.0738 26.8809 77.3473 26.1066C77.6207 25.3324 71.0346 27.576 68.7691 27.9419C71.3808 26.8316 73.5299 26.0725 75.7475 25.1712C77.965 24.2699 78.5369 23.746 82.2823 21.236C84.088 20.026 80.2116 21.6423 76.5006 22.9849C74.3946 23.7468 72.7459 24.1637 71.2135 24.5652C74.2171 23.3492 78.9105 21.1679 81.2621 20.0214C84.2015 18.5882 88.2893 15.2215 86.6795 15.989C86.1231 16.2542 82.7369 17.8189 79.6527 19.1068C77.0709 20.185 74.2601 21.079 73.3756 21.3756C74.4842 20.7868 82.9412 17.0536 84.2244 15.8689C86.4515 13.8128 91.0265 8.21388 90.1535 8.40977C89.6828 8.51538 86.5013 12.1845 82.8656 14.5313C79.9203 16.4323 77.5035 17.5351 75.8659 18.6335C77.0974 17.4422 82.7613 14.2787 84.7848 11.8834C87.4019 8.78544 90.7605 1.95868 90.1295 2.21516C89.4984 2.47163 85.3619 8.67527 83.4736 10.7842C81.603 12.8733 77.7397 15.2113 74.1443 17.7133C77.1809 15.1627 80.5951 12.2578 82.7441 9.45408C84.8932 6.65032 88.6713 0.0880428 88.0402 0.344515C87.4092 0.600987 84.3963 5.43767 80.8465 9.36716C78.0067 12.5108 72.6058 16.5327 70.7433 17.9804C72.6715 16.0915 77.9646 11.7101 79.9505 9.21107C81.8963 6.76238 84.943 0.889639 84.312 1.14611C83.681 1.40258 79.9189 6.88115 77.7088 9.09421C75.2421 11.5642 70.0151 16.4568 67.2937 18.8062C68.9064 17.0456 72.8567 13.2861 74.4133 11.3271C76.3592 8.87844 80.4837 2.12644 80.0236 1.89898C79.5635 1.67152 74.224 8.99541 72.3804 11.1503C69.9662 13.9721 65.6662 18.1017 62.7597 20.4521C65.1075 18.0531 65.8854 16.8512 66.9989 15.6362L67.0374 15.5942C68.3342 14.1794 73.2064 8.86336 72.0599 9.31774C71.4767 9.54887 67.2188 13.2302 62.4564 17.467C58.1606 21.2888 53.2521 24.4733 51.0019 26.1848C50.373 26.6631 52.6828 24.0099 54.7917 21.4478C56.8262 18.9762 58.1796 16.5464 57.4154 17.1724C56.4175 17.9899 54.3759 20.4252 51.8522 22.881C49.7772 24.9002 47.344 26.8793 45.1753 28.449C41.3338 31.2296 30.702 35.4732 33.5715 37.4985C36.4411 39.5237 36.275 41.7166 38.9765 41.4645C45.2197 40.8816 51.4808 42.4508 51.3735 47.7989Z" fill="#7445B8"/>
<path d="M51.3735 47.7989C51.2716 52.8765 47.2378 57.3544 37.4478 59.8805L41.5022 64.2024C47.308 68.6482 43.7632 63.1894 44.9032 63.9353C50.6483 67.6948 47.1264 62.9474 47.3455 62.582C48.7434 63.7064 51.2905 64.2978 51.6565 63.9599C52.0226 63.6219 50.9832 61.9407 50.7335 61.6277C51.693 62.1561 54.3812 63.7016 54.8861 63.4964C55.3909 63.2912 54.6446 61.968 54.1345 61.3606C55.2127 61.9089 58.616 62.7189 59.0051 62.2292C59.3943 61.7395 57.5299 59.9846 56.9646 59.7999C57.8542 59.5765 60.4999 60.2745 60.889 59.7847C61.2782 59.295 59.4487 58.0141 58.8352 57.7108C60.0885 57.4777 63.585 58.11 63.3537 57.5409C63.1224 56.9718 60.559 55.682 60.1471 55.5731C61.2952 55.3827 65.0993 56.1144 65.1204 55.4427C65.1415 54.771 61.5711 52.8514 60.9488 52.828C62.1539 52.4764 66.3768 53.2862 66.1455 52.7171C65.9142 52.148 62.145 50.1904 61.7331 50.0815C62.8812 49.8911 68.2914 50.7625 68.3125 50.0908C68.3336 49.4191 63.5795 48.0114 63.0625 47.9453C64.1624 47.6364 69.9246 47.9792 70.0135 46.9582C70.1023 45.9371 64.0182 45.2136 64.0182 45.2136C63.8418 45.0043 67.4358 45.5891 69.5123 44.1207C71.0789 43.013 61.265 42.7223 59.6374 42.0177C61.3622 41.6048 67.6006 41.3743 67.2148 40.4251C66.9835 39.856 62.4304 39.9676 62.0667 39.9772C62.8599 39.5167 68.6897 39.2177 68.9632 38.4434C69.2368 37.6691 64.6119 38.2004 64.0466 38.0157C64.8398 37.5552 71.1703 36.5006 71.4438 35.7263C71.7173 34.9521 66.2531 35.5355 64.8465 35.6927C66.3188 35.0943 72.0335 34.01 72.8118 33.0306C73.5901 32.0511 68.9081 33.0206 65.8389 33.105C70.1228 32.0004 75.424 29.7415 74.9402 29.275C74.4565 28.8085 70.7578 29.8038 67.3012 30.3737C70.8888 29.2522 77.0738 26.8809 77.3473 26.1066C77.6207 25.3324 71.0346 27.576 68.7691 27.9419C71.3808 26.8316 73.5299 26.0725 75.7475 25.1712C77.965 24.2699 78.5369 23.746 82.2823 21.236C84.088 20.026 80.2116 21.6423 76.5006 22.9849C74.3946 23.7468 72.7459 24.1637 71.2135 24.5652C74.2171 23.3492 78.9105 21.1679 81.2621 20.0214C84.2015 18.5882 88.2893 15.2215 86.6795 15.989C86.1231 16.2542 82.7369 17.8189 79.6527 19.1068C77.0709 20.185 74.2601 21.079 73.3756 21.3756C74.4842 20.7868 82.9412 17.0536 84.2244 15.8689C86.4515 13.8128 91.0265 8.21388 90.1535 8.40977C89.6828 8.51538 86.5013 12.1845 82.8656 14.5313C79.9203 16.4323 77.5035 17.5351 75.8659 18.6335C77.0974 17.4422 82.7613 14.2787 84.7848 11.8834C87.4019 8.78544 90.7605 1.95868 90.1295 2.21516C89.4984 2.47163 85.3619 8.67527 83.4736 10.7842C81.603 12.8733 77.7397 15.2113 74.1443 17.7133C77.1809 15.1627 80.5951 12.2578 82.7441 9.45408C84.8932 6.65032 88.6713 0.0880428 88.0402 0.344515C87.4092 0.600987 84.3963 5.43767 80.8465 9.36716C78.0067 12.5108 72.6058 16.5327 70.7433 17.9804C72.6715 16.0915 77.9646 11.7101 79.9505 9.21107C81.8963 6.76238 84.943 0.889639 84.312 1.14611C83.681 1.40258 79.9189 6.88115 77.7088 9.09421C75.2421 11.5642 70.0151 16.4568 67.2937 18.8062C68.9064 17.0456 72.8567 13.2861 74.4133 11.3271C76.3592 8.87844 80.4837 2.12644 80.0236 1.89898C79.5635 1.67152 74.224 8.99541 72.3804 11.1503C69.9662 13.9721 65.6662 18.1017 62.7597 20.4521C65.1075 18.0531 65.8854 16.8512 66.9989 15.6362L67.0374 15.5942C68.3342 14.1794 73.2064 8.86336 72.0599 9.31774C71.4767 9.54887 67.2188 13.2302 62.4564 17.467C58.1606 21.2888 53.2521 24.4733 51.0019 26.1848C50.373 26.6631 52.6828 24.0099 54.7917 21.4478C56.8262 18.9762 58.1796 16.5464 57.4154 17.1724C56.4175 17.9899 54.3759 20.4252 51.8522 22.881C49.7772 24.9002 47.344 26.8793 45.1753 28.449C41.3338 31.2296 30.702 35.4732 33.5715 37.4985C36.4411 39.5237 36.275 41.7166 38.9765 41.4645C45.2197 40.8816 51.4808 42.4508 51.3735 47.7989Z" fill="white" fill-opacity="0.4"/>
<path d="M46.6784 65.3271C41.6306 63.6446 37.7049 55.7929 34.9006 51.867L21.1201 60.3497C22.4693 61.1719 26 66.9797 26 70C26 75.3078 25.5253 78.4694 30.5 82.5C35.4747 86.5306 42.8688 84.7124 47.2392 83.274C50.2846 82.2716 52.3343 67.2124 46.6784 65.3271Z" fill="#7445B8"/>
<path d="M46.6784 65.3271C41.6306 63.6446 37.7049 55.7929 34.9006 51.867L21.1201 60.3497C22.4693 61.1719 26 66.9797 26 70C26 75.3078 25.5253 78.4694 30.5 82.5C35.4747 86.5306 42.8688 84.7124 47.2392 83.274C50.2846 82.2716 52.3343 67.2124 46.6784 65.3271Z" fill="white" fill-opacity="0.2"/>
<path d="M46.1172 64.9421C42.8778 64.3356 42.5955 61.3279 39.3871 59.7186L40.5088 83.2738C48.0021 84.5377 55.6337 82.2707 60.6991 77.6655C66.868 72.0571 72.7671 74.7635 72.4766 70.9354C72.2441 67.8729 70.6543 65.5047 68.8841 64.9421C67.4291 64.4478 65.1595 63.9424 63.6215 63.4199C59.1182 61.8899 49.7638 65.6248 46.1172 64.9421Z" fill="#7445B8"/>
<path d="M46.1172 64.9421C42.8778 64.3356 42.5955 61.3279 39.3871 59.7186L40.5088 83.2738C48.0021 84.5377 55.6337 82.2707 60.6991 77.6655C66.868 72.0571 72.7671 74.7635 72.4766 70.9354C72.2441 67.8729 70.6543 65.5047 68.8841 64.9421C67.4291 64.4478 65.1595 63.9424 63.6215 63.4199C59.1182 61.8899 49.7638 65.6248 46.1172 64.9421Z" fill="white" fill-opacity="0.2"/>
<path d="M19.9163 57.7886C21.279 59.342 21.843 61.02 22.4853 62.0971C23.1275 63.1743 24.2451 67.0095 24.2451 67.0095C24.2451 67.0095 25.0047 65.0856 25.0071 64.4042C25.4604 65.2742 26.4885 67.0095 26.4885 67.0095C26.4885 67.0095 27.3597 64.2933 27.0992 63.6462C27.4515 64.3812 29.0923 66.4487 29.0923 66.4487C29.0923 66.4487 29.2809 64.1906 28.9286 63.4556C29.3802 64.0867 31.1652 65.3901 31.1652 65.3901C31.1652 65.3901 31.3177 63.1368 30.9578 62.5936C32.0675 63.4563 34.3221 64.4374 34.3221 64.4374C34.3221 64.4374 33.5638 61.9402 33.1121 61.3091C33.8468 62.012 37.1444 63.4556 37.1444 63.4556C37.1444 63.4556 35.718 60.6557 35.2663 60.0246C36.1005 60.6237 39.3878 61.309 39.3878 61.309C39.3878 61.309 36.9538 58.4074 36.2191 57.7044C36.9538 58.4074 41.0702 58.597 41.0702 58.597C41.0702 58.597 38.0325 56.3019 37.1444 55.2319C38.5829 55.643 42.1918 55.2319 42.1918 55.2319C42.1918 55.2319 36.4878 53.3225 35.2663 52.4277C33.0288 50.7886 31.518 50.1591 28.9286 49.6235L19.9163 57.7886Z" fill="#7445B8"/>
<path d="M14.7832 50.1249C15.1576 49.4605 18.8842 47.9053 23.5168 47.4522C25.6906 47.2396 31.2259 50.2351 33.7789 51.3061C34.9244 51.7867 38.8264 52.4278 38.8264 52.4278C38.8264 52.4278 36.0373 53.1202 34.3397 52.9887C35.474 53.7896 37.1331 54.908 37.1331 54.908C37.1331 54.908 34.8958 55.0739 33.1775 54.6552C34.1607 55.5979 35.6649 56.614 35.6649 56.614C35.6649 56.614 33.9301 57.274 32.9818 56.8855C33.5838 57.3707 34.4133 59.0054 34.4133 59.0054C34.4133 59.0054 32.2671 58.6713 31.3813 58.172C31.9833 58.6572 32.8128 60.292 32.8128 60.292C32.8128 60.292 29.8774 59.8048 28.5969 59.229C29.0881 59.6518 29.6962 61.1618 29.6962 61.1618C29.6962 61.1618 28.1178 60.8558 27.5158 60.3707C28.0554 60.9666 28.0957 62.4484 28.0957 62.4484C28.0957 62.4484 25.9777 61.5465 25.4381 60.9505C25.867 61.4841 26.018 63.0283 26.018 63.0283C26.018 63.0283 24.2322 62.3136 23.6926 61.7176C23.7892 62.0639 23.123 64.7663 23.123 64.7663C23.123 64.7663 22.2086 62.1263 22.0013 61.7176C21.4758 60.8378 20.309 59.0227 18.5647 58.3898C16.8203 57.7568 14.3585 57.2778 13.5693 57.1248L13.8957 52.6942C14.083 52.362 14.4836 50.6565 14.7832 50.1249Z" fill="#7445B8"/>
<path d="M14.7832 50.1249C15.1576 49.4605 18.8842 47.9053 23.5168 47.4522C25.6906 47.2396 31.2259 50.2351 33.7789 51.3061C34.9244 51.7867 38.8264 52.4278 38.8264 52.4278C38.8264 52.4278 36.0373 53.1202 34.3397 52.9887C35.474 53.7896 37.1331 54.908 37.1331 54.908C37.1331 54.908 34.8958 55.0739 33.1775 54.6552C34.1607 55.5979 35.6649 56.614 35.6649 56.614C35.6649 56.614 33.9301 57.274 32.9818 56.8855C33.5838 57.3707 34.4133 59.0054 34.4133 59.0054C34.4133 59.0054 32.2671 58.6713 31.3813 58.172C31.9833 58.6572 32.8128 60.292 32.8128 60.292C32.8128 60.292 29.8774 59.8048 28.5969 59.229C29.0881 59.6518 29.6962 61.1618 29.6962 61.1618C29.6962 61.1618 28.1178 60.8558 27.5158 60.3707C28.0554 60.9666 28.0957 62.4484 28.0957 62.4484C28.0957 62.4484 25.9777 61.5465 25.4381 60.9505C25.867 61.4841 26.018 63.0283 26.018 63.0283C26.018 63.0283 24.2322 62.3136 23.6926 61.7176C23.7892 62.0639 23.123 64.7663 23.123 64.7663C23.123 64.7663 22.2086 62.1263 22.0013 61.7176C21.4758 60.8378 20.309 59.0227 18.5647 58.3898C16.8203 57.7568 14.3585 57.2778 13.5693 57.1248L13.8957 52.6942C14.083 52.362 14.4836 50.6565 14.7832 50.1249Z" fill="white" fill-opacity="0.95"/>
<path d="M17.274 57.6105C18.0892 57.3278 19.1425 55.9986 19.7629 55.5931L16.6956 55.8008C16.0162 56.0365 14.3165 56.5118 12.9523 56.5283C11.5881 56.5449 11.0274 58.0046 11.1487 58.6285C11.6027 58.5661 13.0631 58.1581 13.4825 58.0569C14.4709 57.8184 16.255 57.964 17.274 57.6105Z" fill="#C57A09"/>
<path d="M16.915 55.2826L19.7529 55.6344C18.6195 55.9324 15.8278 56.5578 15.0126 56.8405C13.9935 57.194 11.9819 57.9602 11.6796 58.1927C11.0037 58.7125 11.6103 59.7559 11.8459 60.4352C11.1597 60.1024 9.70975 59.1188 9.47867 58.9196C8.87647 58.4006 7.47527 57.3995 7.63051 56.8019C7.87052 55.8779 13.0515 53.0162 14.067 52.3786L16.915 55.2826Z" fill="#FAA21E"/>
<path d="M16.9685 51.4696C15.8993 52.1641 16.1972 53.6116 16.1972 53.6116C16.1972 53.6116 19.0762 53.6806 19.6709 52.929C20.4804 51.9056 20.7503 50.6732 20.7503 50.6732C20.7503 50.6732 18.097 50.6095 16.9685 51.4696Z" fill="#898989"/>
<path d="M16.9685 51.4696C15.8993 52.1641 16.1972 53.6116 16.1972 53.6116C16.1972 53.6116 19.0762 53.6806 19.6709 52.929C20.4804 51.9056 20.7503 50.6732 20.7503 50.6732C20.7503 50.6732 18.097 50.6095 16.9685 51.4696Z" fill="white" fill-opacity="0.6"/>
<circle cx="0.926372" cy="0.926372" r="0.926372" transform="matrix(-0.70859 -0.70562 -0.70562 0.70859 18.9033 52.3533)" fill="#D0333D"/>
<circle cx="0.926372" cy="0.926372" r="0.926372" transform="matrix(-0.70859 -0.70562 -0.70562 0.70859 18.9033 52.3533)" fill="black" fill-opacity="0.2"/>
<path d="M31.5 82.5C29.5002 79.5 31.4999 73.5 35.5735 70.3866C36.9948 69.5045 40.7304 72.337 42.0001 74.5L42.0185 74.5313C43.2747 76.6713 43.7771 77.5273 43.5 81C43.2216 84.4896 38.8691 87.2869 37.5427 88.2329C36.2163 89.1789 35.8233 90.4465 35.6268 91.0803L34.0931 90.1599C34.3687 89.5794 34.7117 88.3927 34.5021 87.884C34.2401 87.2481 33.2988 85.1983 31.5 82.5Z" fill="#7445B8"/>
<path d="M62.0001 76.5C60.8001 74.5 60.8334 69.6667 61.0001 67.5C60 70 60.2 75.4 61.0001 77C61.8001 78.6 66.3334 82 68.5 83.5C66.8334 82 63.2001 78.5 62.0001 76.5Z" fill="#7445B8"/>
<path d="M32.4584 82.9734C30.9356 80.1103 31.7826 72.4321 35.5734 70.3866C36.9947 69.5045 40.163 71.7642 41.4326 73.9272C42.7023 76.0902 42.9302 77.1502 42.6517 80.6398C42.3733 84.1294 38.869 87.2869 37.5426 88.2329C36.2162 89.1789 35.8232 90.4465 35.6267 91.0803L34.093 90.1599C34.3687 89.5794 34.7116 88.3927 34.502 87.884C34.24 87.2481 33.9811 85.8365 32.4584 82.9734Z" fill="#7445B8"/>
<path d="M32.4584 82.9734C30.9356 80.1103 31.7826 72.4321 35.5734 70.3866C36.9947 69.5045 40.163 71.7642 41.4326 73.9272C42.7023 76.0902 42.9302 77.1502 42.6517 80.6398C42.3733 84.1294 38.869 87.2869 37.5426 88.2329C36.2162 89.1789 35.8232 90.4465 35.6267 91.0803L34.093 90.1599C34.3687 89.5794 34.7116 88.3927 34.502 87.884C34.24 87.2481 33.9811 85.8365 32.4584 82.9734Z" fill="white" fill-opacity="0.2"/>
<path d="M35.1013 93.0886L36.8151 88.8524L34.5014 87.8838L33.0276 92.6678L30 91L26.5 93.6344L27.5 97.231L28 93.9048L29.5 92.5L32.4715 93.6345L29.4157 94.466L28.5 96.6903L29.5 99.445L29.4157 96.2592L30.5 95.5L33.0276 94.7568L31.3125 96.6903L31 98.5L33.0276 100L32 98L32.5 96.5L34.8207 94.4711L36.3435 94.0605L36.8944 94.892L36.8893 96.6903L38.0014 94.7568L37.3153 92.8183L35.1013 93.0886Z" fill="#FAA21E"/>
<path d="M35.1013 93.0886L36.8151 88.8524L34.5014 87.8838L33.0276 92.6678L30 91L26.5 93.6344L27.5 97.231L28 93.9048L29.5 92.5L32.4715 93.6345L29.4157 94.466L28.5 96.6903L29.5 99.445L29.4157 96.2592L30.5 95.5L33.0276 94.7568L31.3125 96.6903L31 98.5L33.0276 100L32 98L32.5 96.5L34.8207 94.4711L36.3435 94.0605L36.8944 94.892L36.8893 96.6903L38.0014 94.7568L37.3153 92.8183L35.1013 93.0886Z" fill="black" fill-opacity="0.1"/>
<path d="M26.1858 47.0687C24.3397 47.9563 22.144 48.8925 21.1983 49.1094C22.6017 49.3853 25.5794 49.4125 26.8362 49.251C28.3568 49.0556 30.7371 47.1978 31.1553 45.7495C30.9752 46.2586 29.8535 46.8194 29.2927 46.8194C30.6834 44.9446 31.4272 43.4643 31.536 41.211C30.9751 43.4544 28.2244 46.0885 26.1858 47.0687Z" fill="#7445B8"/>
<path d="M26.1858 47.0687C24.3397 47.9563 22.144 48.8925 21.1983 49.1094C22.6017 49.3853 25.5794 49.4125 26.8362 49.251C28.3568 49.0556 30.7371 47.1978 31.1553 45.7495C30.9752 46.2586 29.8535 46.8194 29.2927 46.8194C30.6834 44.9446 31.4272 43.4643 31.536 41.211C30.9751 43.4544 28.2244 46.0885 26.1858 47.0687Z" fill="white" fill-opacity="0.95"/>
</g>
<defs>
<clipPath id="clip0_4692_7700">
<rect width="100" height="100" fill="white"/>
</clipPath>
</defs>
</svg>
