<?xml version="1.0" encoding="utf-8"?><svg fill="none" viewBox="0 0 100 100" width="100" height="100" xmlns="http://www.w3.org/2000/svg"><path d="M100 76c0 11.874-22.386 21.5-50 21.5S0 87.874 0 76c0-5.878 9-20.5 9-20.5h41c13.627 0 40 1 40 1s10 13.486 10 19.5Z" fill="#FAA21E"/><path d="M100 76c0 11.874-22.386 21.5-50 21.5S0 87.874 0 76c0-5.878 9-20.5 9-20.5h41c13.627 0 40 1 40 1s10 13.486 10 19.5Z" fill="#fff" fill-opacity=".4"/><path d="M4.5 32.5 1.5 70c10-8.5 26.412-14 49.912-14 22 0 37.5 7 47 14.5l-2.913-38-2.5 1v4L90.5 39v-4L88 36v4l-3 .5v-4l-2.5.5v4.5L80 42v-4l-2.5.5v4l-3 .5v-4l-23.087-1.5-22.912 2V43l-3-.5V39l-3-.5V42l-2.5-.5V38l-3-.5V41l-3.088-1v-4L11 35v4l-3.5-1.5v-4l-3-1Z" fill="#898989"/><path d="M0 75.803C0 89.721 22.353 92.5 49.927 92.5c25.167 0 49.5-3.697 50-16-.5 1.318-1.222 3.5-3.5 3.5-2.996 0-4.062-7.428-7.557-7.428-2.496 0-3.495 4.11-7.49 4.11-5.491 0-9.47-9.182-20.453-9.182-9.992 0-18.512 15-26.5 15-7.988 0-10.462-6.35-13.458-6.35-1.997 0-1.997 3.168-5.492 3.168S8.987 68.54 5.991 68.54C3.595 68.54 1 73.167 0 75.803Z" fill="#1D8CE0"/><path d="M0 75.803C0 89.721 22.353 92.5 49.927 92.5c25.167 0 49.5-3.697 50-16-.5 1.318-1.222 3.5-3.5 3.5-2.996 0-4.062-7.428-7.557-7.428-2.496 0-3.495 4.11-7.49 4.11-5.491 0-9.47-9.182-20.453-9.182-9.992 0-18.512 15-26.5 15-7.988 0-10.462-6.35-13.458-6.35-1.997 0-1.997 3.168-5.492 3.168S8.987 68.54 5.991 68.54C3.595 68.54 1 73.167 0 75.803Z" fill="#fff" fill-opacity=".95"/><path d="M0 76.177C0 87.953 22.386 97.5 50 97.5c25.204 0 45.98-7.957 49.427-18.3-.403.839-1.575 1.8-3 1.8-2.574 0-4.5-5.5-7.5-5.5s-2.725 2.382-7.427 2.382c-7.018 0-9.573-5.882-20.573-5.882-10.007 0-18 12-26 12s-9.073-5-14-5c-2.514 0-2.768 1.441-5.427 1.441C12 80.441 8.427 72 5.427 72 3.027 72 1 75.04 0 76.177Z" fill="#1D8CE0"/><path d="M0 76.177C0 87.953 22.386 97.5 50 97.5c25.204 0 45.98-7.957 49.427-18.3-.403.839-1.575 1.8-3 1.8-2.574 0-4.5-5.5-7.5-5.5s-2.725 2.382-7.427 2.382c-7.018 0-9.573-5.882-20.573-5.882-10.007 0-18 12-26 12s-9.073-5-14-5c-2.514 0-2.768 1.441-5.427 1.441C12 80.441 8.427 72 5.427 72 3.027 72 1 75.04 0 76.177Z" fill="#000" fill-opacity=".4"/><path d="m81.23 71 2.183 9.178-3.637 1.004-3.636-1.004 1.454-6.118L81.231 71Z" fill="#898989"/><path d="m81.23 71 2.183 9.178-3.637 1.004-3.636-1.004 1.454-6.118L81.231 71Z" fill="#fff" fill-opacity=".4"/><path d="m70.322 63.238 1.454 4.079-2.73 1.138-1.633-1.138.727-3.06 2.182-1.02Z" fill="#898989"/><path d="m70.322 63.238 1.454 4.079-2.73 1.138-1.633-1.138.727-3.06 2.182-1.02Z" fill="#fff" fill-opacity=".4"/><path d="M77.058 74.06 81.23 71l-3.636 6.546 2.182 3.636-4.096-1.004 1.378-6.118Z" fill="#898989"/><path d="M77.058 74.06 81.23 71l-3.636 6.546 2.182 3.636-4.096-1.004 1.378-6.118Z" fill="#fff" fill-opacity=".2"/><path d="m68.101 64.257 2.067-1.02-1.208 2.22v2.998l-1.548-1.138.69-3.06Z" fill="#898989"/><path d="m68.101 64.257 2.067-1.02-1.208 2.22v2.998l-1.548-1.138.69-3.06Z" fill="#fff" fill-opacity=".2"/><path d="M50.385 56.224c-3.746 0-9.171 2.146-10.537 2.927L36.92 43.344h26.343l-.5 15.807c-1.756-.586-8.632-2.927-12.379-2.927Z" fill="#898989"/><path d="M50.385 56.224c-3.746 0-9.171 2.146-10.537 2.927L36.92 43.344h26.343l-.5 15.807c-1.756-.586-8.632-2.927-12.379-2.927Z" fill="#000" fill-opacity=".6"/><path d="m39.262 61.546 1.756-2.98-1.756-12.454 2.927 6.014 1.757-4.098 2.341 2.342 1.756-3.513 2.927 3.513 2.342-4.098 1.756 3.512 3.513-2.342 1.17 5.27 2.928-6.6-1.757 12.453 3.013 1.171 2.927-1.17 3.513-15.807 7.525-7.823v-14.37l-6.524-7.45-5.201-6.653L47.29 3.536l-15.054 7.025-5.87 8.196-2.927 13.465 8.797 10.697L33.5 57.5l5.762 4.046Z" fill="#898989"/><path d="m39.262 61.546 1.756-2.98-1.756-12.454 2.927 6.014 1.757-4.098 2.341 2.342 1.756-3.513 2.927 3.513 2.342-4.098 1.756 3.512 3.513-2.342 1.17 5.27 2.928-6.6-1.757 12.453 3.013 1.171 2.927-1.17 3.513-15.807 7.525-7.823v-14.37l-6.524-7.45-5.201-6.653L47.29 3.536l-15.054 7.025-5.87 8.196-2.927 13.465 8.797 10.697L33.5 57.5l5.762 4.046Z" fill="#fff" fill-opacity=".4"/><path d="m32.22 43.345 2.928-5.27 4.098 8.197-7.025-2.927Z" fill="#898989"/><path d="m32.22 43.345 2.928-5.27 4.098 8.197-7.025-2.927Z" fill="#fff" fill-opacity=".2"/><path d="m67.346 44.515 2.927-7.61H61.49l5.855 7.61Z" fill="#898989"/><path d="m67.346 44.515 2.927-7.61H61.49l5.855 7.61Z" fill="#fff" fill-opacity=".2"/><path d="m70.375 42.76-2.927 1.755-.586 14.05 3.513-15.806Z" fill="#898989"/><path d="m70.375 42.76-2.927 1.755-.586 14.05 3.513-15.806Z" fill="#000" fill-opacity=".2"/><path d="m49.784 19.928-.586 4.098 2.927.586 6.44-3.513-1.171-2.927-3.512-1.756-4.098 3.512Z" fill="#898989"/><path d="m49.784 19.928-.586 4.098 2.927.586 6.44-3.513-1.171-2.927-3.512-1.756-4.098 3.512Z" fill="#fff" fill-opacity=".2"/><path d="m39.246 46.272 3.512-1.757 1.171 3.513 1.756-3.513 2.342 2.342 2.927-2.342 2.342 1.757 3.512-2.928 1.757 4.098v-2.341l4.097 1.17-2.927 6.44-1.17-5.269-3.513 2.342-1.756-3.512-2.342 4.097-2.927-3.512-1.756 3.512-2.342-2.341-1.756 4.098-2.927-5.854Z" fill="#FEFEFE"/><path d="m53.881 32.807-1.756-2.342v-5.854l5.854-3.512 2.342 4.098-6.44 7.61ZM39.831 12.903l-7.61-2.341 15.22-7.025-7.61 9.366Z" fill="#898989"/><path d="m39.831 12.903-7.61-2.341 15.22-7.025-7.61 9.366Z" fill="#fff" fill-opacity=".95"/><path d="m47.442 3.537-7.61 9.366 7.61-.585 7.025-2.927 4.098 1.17h4.097l2.928-1.17.585-2.927-18.733-2.928Z" fill="#898989"/><path d="m47.442 3.537-7.61 9.366 7.61-.585 7.025-2.927 4.098 1.17h4.097l2.928-1.17.585-2.927-18.733-2.928Z" fill="#fff" fill-opacity=".95"/><path d="m47.442 3.537-7.61 9.366 7.61-.585 7.025-2.927-7.025-5.854Z" fill="#898989"/><path d="m47.442 3.537-7.61 9.366 7.61-.585 7.025-2.927-7.025-5.854Z" fill="#fff" fill-opacity=".8"/><path d="m41.018 27.539-7.025-2.342-1.756 4.683 2.927 8.196 7.61-1.17 4.684-2.928-6.44-6.44Z" fill="#546DDB"/><path d="m41.018 27.539-7.025-2.342-1.756 4.683 2.927 8.196 7.61-1.17 4.684-2.928-6.44-6.44Z" fill="#000" fill-opacity=".8"/><path d="m65.02 27.539-8.781 6.44 5.269 2.926h8.781l1.756-7.025-1.756-4.683-5.269 2.342Z" fill="#546DDB"/><path d="m65.02 27.539-8.781 6.44 5.269 2.926h8.781l1.756-7.025-1.756-4.683-5.269 2.342Z" fill="#000" fill-opacity=".8"/><path d="m49.214 43.345 2.927-4.684 2.927 5.27-2.927-1.172-2.927.586Z" fill="#546DDB"/><path d="m49.214 43.345 2.927-4.684 2.927 5.27-2.927-1.172-2.927.586Z" fill="#000" fill-opacity=".8"/><path d="m39.831 12.903-7.61-2.341 3.512 9.366 4.098-7.025Z" fill="#898989"/><path d="m39.831 12.903-7.61-2.341 3.512 9.366 4.098-7.025Z" fill="#fff" fill-opacity=".8"/><path d="m53.881 32.807 2.342 1.171 8.781-6.44-4.683-2.341-6.44 7.61Z" fill="#898989"/><path d="m53.881 32.807 2.342 1.171 8.781-6.44-4.683-2.341-6.44 7.61Z" fill="#fff" fill-opacity=".6"/><path d="m49.784 33.392-.586 9.953 2.927-4.684v-8.196l-2.341 2.927Z" fill="#898989"/><path d="m49.784 33.392-.586 9.953 2.927-4.684v-8.196l-2.341 2.927Z" fill="#fff" fill-opacity=".8"/><path d="m53.881 32.807 1.171 11.123-2.927-5.269v-8.196l1.756 2.342Z" fill="#898989"/><path d="m53.881 32.807 1.171 11.123-2.927-5.269v-8.196l1.756 2.342Z" fill="#fff" fill-opacity=".6"/><path d="m32.22 21.684 1.757 3.513 7.025 2.342 3.512-2.342-8.78-5.269-3.513 1.756Z" fill="#898989"/><path d="m32.22 21.684 1.757 3.513 7.025 2.342 3.512-2.342-8.78-5.269-3.513 1.756Z" fill="#fff" fill-opacity=".8"/><path d="m44.514 25.197-3.512 2.342 6.44 6.44 2.34-.586-5.268-8.196Z" fill="#898989"/><path d="m44.514 25.197-3.512 2.342 6.44 6.44 2.34-.586-5.268-8.196Z" fill="#fff" fill-opacity=".6"/><path d="m39.831 12.903-4.098 7.025 8.782 5.269 4.097-1.171.586-4.683-1.756-7.025-7.61.585Z" fill="#898989"/><path d="m39.831 12.903-4.098 7.025 8.782 5.269 4.097-1.171.586-4.683-1.756-7.025-7.61.585Z" fill="#fff" fill-opacity=".6"/><path d="m62.077 14.074-7.61 1.756 7.025 2.927.585-4.683Z" fill="#898989"/><path d="m62.077 14.074-7.61 1.756 7.025 2.927.585-4.683Z" fill="#fff" fill-opacity=".8"/><path d="m57.979 21.099-.585-2.927h4.098l8.78 7.025-5.268 2.341-4.683-2.341-2.342-4.098Z" fill="#898989"/><path d="m57.979 21.099-.585-2.927h4.098l8.78 7.025-5.268 2.341-4.683-2.341-2.342-4.098Z" fill="#fff" fill-opacity=".8"/><path d="m63.248 10.562-1.171 3.512h5.854L65.589 9.39l-2.341 1.17Z" fill="#898989"/><path d="m63.248 10.562-1.171 3.512h5.854L65.589 9.39l-2.341 1.17Z" fill="#fff" fill-opacity=".6"/><path d="m70.273 25.196-1.171-8.195.585-1.757-1.756-1.17-2.342-4.684L66.76 7.05l11.123 13.464-7.61 4.683Z" fill="#898989"/><path d="m72.029 29.88-1.757-4.683 7.61-4.684v14.635L72.03 29.88Z" fill="#898989"/><path d="m72.029 29.88-1.757-4.683 7.61-4.684v14.635L72.03 29.88Z" fill="#000" fill-opacity=".2"/><path d="m32.22 29.88-8.78 2.342 3.512-12.88 7.025 5.855-1.756 4.683Z" fill="#898989"/><path d="m32.22 29.88-8.78 2.342 3.512-12.88 7.025 5.855-1.756 4.683Z" fill="#fff" fill-opacity=".6"/><path d="M39.246 46.271v15.221l1.756-2.927-1.756-12.294ZM60.906 58.565l1.756-12.294 1.273 13.465-3.029-1.17Z" fill="#898989"/><path d="m42.758 36.905-7.61 1.17 4.098 8.197 3.512-1.757v-7.61Z" fill="#898989"/><path d="m42.758 36.905-7.61 1.17 4.098 8.197 3.512-1.757v-7.61Z" fill="#fff" fill-opacity=".6"/><path d="m58.565 45.1 2.927-8.195 5.854 7.61-4.684 1.757-4.097-1.171Z" fill="#898989"/><path d="m58.565 45.1 2.927-8.195 5.854 7.61-4.684 1.757-4.097-1.171Z" fill="#fff" fill-opacity=".6"/><path d="M20.506 65.164c-1.047.274-2.308.033-2.36-.697-.053-.73-.267-1.186.802-1.858 1.068-.671 2.337-.575 2.834.215.496.79.247 1.942-1.276 2.34Z" fill="#898989"/><path d="m14.5 19 4.913 46.5" stroke="#FAA21E"/><path d="m14.5 19 4.913 46.5" stroke="#000" stroke-opacity=".4"/><path d="M14.404 24.592c-1.345-3.164-.34-5.298-.34-5.298 4.213 1.433 5.543-.34 9.533-.784 3.99-.443 5.798 3.075 11.562-.029-4.42 8.103-7.06 5.075-11.05 7.735-3.99 3.104-3.684 4.052-9.364 3.675 0 0 1.005-2.134-.34-5.299Z" fill="#D0333D"/><path d="M14.404 24.592c-1.345-3.164-.34-5.298-.34-5.298 4.213 1.433 5.543-.34 9.533-.784 3.99-.443 5.798 3.075 11.562-.029-4.42 8.103-7.06 5.075-11.05 7.735-3.99 3.104-3.684 4.052-9.364 3.675 0 0 1.005-2.134-.34-5.299Z" fill="#000" fill-opacity=".2"/><path d="m23.5 20.5-5 6M17 22l8 2.5" stroke="#000"/><path d="M17.79 66.013c-.784.173-1.754-.075-1.826-.664-.072-.589-.255-.964.53-1.457.783-.492 1.753-.36 2.166.297.412.656.273 1.57-.87 1.824Z" fill="#898989"/><path d="M17.79 66.013c-.784.173-1.754-.075-1.826-.664-.072-.589-.255-.964.53-1.457.783-.492 1.753-.36 2.166.297.412.656.273 1.57-.87 1.824Z" fill="#fff" fill-opacity=".2"/><path d="M26.223 66.127c-.398-.15-.745-.494-.59-.715.155-.222.194-.4.693-.359.5.04.882.345.855.68-.027.336-.377.612-.958.394Z" fill="#898989"/><path d="M26.223 66.127c-.398-.15-.745-.494-.59-.715.155-.222.194-.4.693-.359.5.04.882.345.855.68-.027.336-.377.612-.958.394Z" fill="#fff" fill-opacity=".4"/><path d="M24.064 69.046c-.43.048-.925-.13-.918-.438.006-.307-.062-.51.392-.723.453-.212.957-.093 1.126.267.17.36.025.823-.6.894Z" fill="#898989"/><path d="M24.064 69.046c-.43.048-.925-.13-.918-.438.006-.307-.062-.51.392-.723.453-.212.957-.093 1.126.267.17.36.025.823-.6.894Z" fill="#fff" fill-opacity=".4"/><path d="M18.501 64.823c-.127 1.076.198 2.417 2.069 2.16 1.16-.16 3.028-.214 3.156-1.29.127-1.075-1.088-2.103-2.715-2.295-1.627-.193-2.383.35-2.51 1.425Z" fill="#898989"/><path d="M18.501 64.823c-.127 1.076.198 2.417 2.069 2.16 1.16-.16 3.028-.214 3.156-1.29.127-1.075-1.088-2.103-2.715-2.295-1.627-.193-2.383.35-2.51 1.425Z" fill="#fff" fill-opacity=".4"/><path d="M74.912 54v-4l3.5-1v4l-3.5 1Z" fill="#898989"/><path d="M74.912 54v-4l3.5-1v4l-3.5 1Z" fill="#fff" fill-opacity=".2"/><path d="m93.912 54-3 1v4H94.5l-.587-5Z" fill="#898989"/><path d="m93.912 54-3 1v4H94.5l-.587-5Z" fill="#fff" fill-opacity=".2"/><path d="M29 48v3.5h2.5V49L29 48Z" fill="#898989"/><path d="M29 48v3.5h2.5V49L29 48Z" fill="#fff" fill-opacity=".2"/><path d="m85 45-.5 3H87v-3.5l-2 .5Z" fill="#898989"/><path d="m85 45-.5 3H87v-3.5l-2 .5Z" fill="#fff" fill-opacity=".2"/><path d="M9 51v5h3.5l-.5-4-3-1Z" fill="#898989"/><path d="M9 51v5h3.5l-.5-4-3-1Z" fill="#fff" fill-opacity=".2"/></svg>