<?xml version="1.0" encoding="utf-8"?><svg fill="none" viewBox="0 0 50 50" xmlns="http://www.w3.org/2000/svg" width="50" height="50"><path d="M21 23.654 46 16l-.5 18.154-24.5 10v-20.5Z" fill="#1D8CE0"/><path d="M21 23.654 46 16l-.5 18.154-24.5 10v-20.5Z" fill="#000" fill-opacity=".2"/><path d="m4 17 17 6.654v20.5l-16.5-8.5L4 17ZM46 15.5V12l-25 8.5v4.154L46 15.5Z" fill="#1D8CE0"/><path d="M46 15.5V12l-25 8.5v4.154L46 15.5Z" fill="#000" fill-opacity=".2"/><path d="M21 20.5 4 14l24-7.5L46 12l-25 8.5Z" fill="#1D8CE0"/><path d="M21 20.5 4 14l24-7.5L46 12l-25 8.5Z" fill="#fff" fill-opacity=".2"/><path d="M46 17v-1.5l-25 9v1.654L46 17Z" fill="#1D8CE0"/><path d="M46 17v-1.5l-25 9v1.654L46 17Z" fill="#000" fill-opacity=".6"/><path d="M21 26.154v-2.5l-17-6.5V19l17 7.154Z" fill="#1D8CE0"/><path d="M21 26.154v-2.5l-17-6.5V19l17 7.154Z" fill="#000" fill-opacity=".6"/><path d="M21 24.5v-4L4 14v3.5l17 7Z" fill="#1D8CE0"/><path d="m38 14.7-5.5 1.8v22.949L38 37.2V14.7Z" fill="#FAA21E"/><ellipse cx="1.5" cy="1" rx="1.5" ry="1" transform="matrix(0 1 1 0 34.5 22.5)" fill="#1D8CE0"/><ellipse cx="1.5" cy="1" rx="1.5" ry="1" transform="matrix(0 1 1 0 34.5 22.5)" fill="#000" fill-opacity=".6"/><path d="M36 26a.5.5 0 0 1-1 0h1Zm-.5-1.5h.5V26h-1v-1.5h.5Z" fill="#1D8CE0"/><path d="M36 26a.5.5 0 0 1-1 0h1Zm-.5-1.5h.5V26h-1v-1.5h.5Z" fill="#000" fill-opacity=".6"/><path d="m15.5 10.4 17 6.1 5.5-1.8-17-6-5.5 1.7Z" fill="#FAA21E"/><path d="m15.5 10.4 17 6.1 5.5-1.8-17-6-5.5 1.7Z" fill="#fff" fill-opacity=".4"/><path d="m35.5 29.5-3-2.5v12.5l5.5-2.3V25l-2.5 4.5Z" fill="#C57A09"/><ellipse cx="6" cy="16.5" rx=".5" ry="1" fill="#FAA21E"/><ellipse cx="6" cy="16.5" rx=".5" ry="1" fill="#fff" fill-opacity=".2"/><ellipse cx="8.5" cy="17.5" rx=".5" ry="1" fill="#FAA21E"/><ellipse cx="8.5" cy="17.5" rx=".5" ry="1" fill="#fff" fill-opacity=".2"/><ellipse cx="11" cy="18.5" rx=".5" ry="1" fill="#FAA21E"/><ellipse cx="11" cy="18.5" rx=".5" ry="1" fill="#fff" fill-opacity=".2"/><ellipse cx="13.5" cy="19.5" rx=".5" ry="1" fill="#FAA21E"/><ellipse cx="13.5" cy="19.5" rx=".5" ry="1" fill="#fff" fill-opacity=".2"/><ellipse cx="16" cy="20.5" rx=".5" ry="1" fill="#FAA21E"/><ellipse cx="16" cy="20.5" rx=".5" ry="1" fill="#fff" fill-opacity=".2"/><ellipse cx="18.5" cy="21.5" rx=".5" ry="1" fill="#FAA21E"/><ellipse cx="18.5" cy="21.5" rx=".5" ry="1" fill="#fff" fill-opacity=".2"/><ellipse cx="23.5" cy="21.5" rx=".5" ry="1" fill="#FAA21E"/><ellipse cx="23.5" cy="21.5" rx=".5" ry="1" fill="#000" fill-opacity=".1"/><ellipse cx="26" cy="20.75" rx=".5" ry="1" fill="#FAA21E"/><ellipse cx="26" cy="20.75" rx=".5" ry="1" fill="#000" fill-opacity=".1"/><ellipse cx="28.5" cy="20" rx=".5" ry="1" fill="#FAA21E"/><ellipse cx="28.5" cy="20" rx=".5" ry="1" fill="#000" fill-opacity=".1"/><ellipse cx="31" cy="19.25" rx=".5" ry="1" fill="#FAA21E"/><ellipse cx="31" cy="19.25" rx=".5" ry="1" fill="#000" fill-opacity=".1"/><ellipse cx="39.5" cy="16" rx=".5" ry="1" fill="#FAA21E"/><ellipse cx="39.5" cy="16" rx=".5" ry="1" fill="#000" fill-opacity=".1"/><ellipse cx="43.25" cy="14.5" rx=".5" ry="1" fill="#FAA21E"/><ellipse cx="43.25" cy="14.5" rx=".5" ry="1" fill="#000" fill-opacity=".1"/><ellipse cx="41.5" cy="15.25" rx=".5" ry="1" fill="#FAA21E"/><ellipse cx="41.5" cy="15.25" rx=".5" ry="1" fill="#000" fill-opacity=".1"/><ellipse cx="45" cy="13.75" rx=".5" ry="1" fill="#FAA21E"/><ellipse cx="45" cy="13.75" rx=".5" ry="1" fill="#000" fill-opacity=".1"/></svg>