<?xml version="1.0" encoding="utf-8"?><svg fill="none" viewBox="0 0 100 100" width="100" height="100" xmlns="http://www.w3.org/2000/svg"><g clip-path="url(#ara)"><path d="M0 91.722V68.39L100 68v23.5c-5.74 1.296-24 4.111-48.889 4.111-24.889 0-44.444-2.592-51.111-3.889Z" fill="#D0333D"/><path d="M0 91.722V68.39L100 68v23.5c-5.74 1.296-24 4.111-48.889 4.111-24.889 0-44.444-2.592-51.111-3.889Z" fill="#000" fill-opacity=".2"/><path d="M62.222 70.611H36.667V95.39c1.852 0 7.11.222 13.333.222 6.222 0 10.37-.037 12.222-.222V70.61Z" fill="#D0333D"/><path d="M62.222 70.611H36.667V95.39c1.852 0 7.11.222 13.333.222 6.222 0 10.37-.037 12.222-.222V70.61Z" fill="#000" fill-opacity=".8"/><path d="M10 93.167V68.389l17.778.556v25.888c-7.28-.448-11.18-.801-17.778-1.666Z" fill="#7445B8"/><path d="M10 93.167V68.389l17.778.556v25.888c-7.28-.448-11.18-.801-17.778-1.666Z" fill="#fff" fill-opacity=".6"/><path d="M90 93.167V68.945l-17.778.536v25.464c7.036-.447 10.947-.789 17.778-1.778Z" fill="#7445B8"/><path d="M90 93.167V68.945l-17.778.536v25.464c7.036-.447 10.947-.789 17.778-1.778Z" fill="#fff" fill-opacity=".2"/><path d="M56.667 5.056c-4 .888-6.482-.741-7.223-1.667v6.667c.926.555 3.89 1.11 7.778-.556 4.708-2.018 6.049-2.353 12.222-1.667 5 .556 7.593-2.037 8.334-3.889-1.482.926-5.223 2.445-8.334 1.112-3.889-1.667-7.777-1.112-12.777 0Z" fill="#A272E4"/><path d="M49.444 22.278V3.388" stroke="#898989" stroke-width="1.111"/><path d="M49.444 22.278V3.388" stroke="#fff" stroke-opacity=".6" stroke-width="1.111"/><path d="M49.444 69.643C38.778 69.643 12.963 69.214 0 69v3.857c.185 1.072 1.111 3.857 3.333 3.857 3.89 0 6.111-4.5 6.667-6.428.556 2.143 4.444 7.071 8.889 7.071 4.444 0 8.518-4.286 9.444-6.428C29.444 73.286 33.556 78 38.89 78c5.333 0 9.444-4.071 10.555-6.429C50.556 74.143 55.667 78 60.556 78S70 73.5 71.11 70.929c1.296 2.571 5.111 6.428 10 6.428s8.148-4.5 8.889-7.071c.556 2.143 4 6.428 6.667 6.428 2.222 0 3.333-1.928 3.333-3.214V69c-11.111.214-39.889.643-50.556.643Z" fill="#7445B8"/><path d="M49.444 69.643C38.778 69.643 12.963 69.214 0 69v3.857c.185 1.072 1.111 3.857 3.333 3.857 3.89 0 6.111-4.5 6.667-6.428.556 2.143 4.444 7.071 8.889 7.071 4.444 0 8.518-4.286 9.444-6.428C29.444 73.286 33.556 78 38.89 78c5.333 0 9.444-4.071 10.555-6.429C50.556 74.143 55.667 78 60.556 78S70 73.5 71.11 70.929c1.296 2.571 5.111 6.428 10 6.428s8.148-4.5 8.889-7.071c.556 2.143 4 6.428 6.667 6.428 2.222 0 3.333-1.928 3.333-3.214V69c-11.111.214-39.889.643-50.556.643Z" fill="#fff" fill-opacity=".4"/><path d="M31.111 46.167C43.333 34.5 47.222 25.056 49.444 17.833c2.223 7.223 5.034 17.28 20 30 11.112 9.445 23.334 16.111 30.556 20-10.74.37-35.889 1.112-48.333 1.112-12.445 0-39.63-.741-51.667-1.112 4.444-2.222 17.725-8.889 31.111-21.666Z" fill="#D0333D"/><path d="M45.556 47.278c1.777-10.667 3.333-21.667 3.889-29.445.555 7.778 1.888 22.778 2.777 29.445.89 6.666 4.074 17.222 5.556 21.667H40.556c.926-2.778 3.222-11 5-21.667Z" fill="#7445B8"/><path d="M45.556 47.278c1.777-10.667 3.333-21.667 3.889-29.445.555 7.778 1.888 22.778 2.777 29.445.89 6.666 4.074 17.222 5.556 21.667H40.556c.926-2.778 3.222-11 5-21.667Z" fill="#fff" fill-opacity=".6"/><path d="M32.222 49.5c8.89-11.111 15.556-24.444 17.223-31.667-1.112 7.778-6.445 25.111-10 32.223-3.556 7.11-7.056 12.889-10.945 18.444h-18c3.889-2.222 12.833-7.889 21.722-19Z" fill="#7445B8"/><path d="M32.222 49.5c8.89-11.111 15.556-24.444 17.223-31.667-1.112 7.778-6.445 25.111-10 32.223-3.556 7.11-7.056 12.889-10.945 18.444h-18c3.889-2.222 12.833-7.889 21.722-19Z" fill="#fff" fill-opacity=".8"/><path d="M66.603 49.848c-9.143-11.233-15.58-24.237-17.159-32.015 1.143 7.864 6.073 25.387 9.73 32.577C62.833 57.599 67.5 63.383 71.5 69l18.5-.617c-4-2.247-14.254-7.302-23.397-18.535Z" fill="#7445B8"/><path d="M66.603 49.848c-9.143-11.233-15.58-24.237-17.159-32.015 1.143 7.864 6.073 25.387 9.73 32.577C62.833 57.599 67.5 63.383 71.5 69l18.5-.617c-4-2.247-14.254-7.302-23.397-18.535Z" fill="#fff" fill-opacity=".4"/><path d="M49.444 68.945c-10.666 0-36.481-.926-49.444-1.112v3.334c.185.926 1.111 3.333 3.333 3.333 3.89 0 6.111-3.889 6.667-5.555.556 1.851 4.444 6.11 8.889 6.11 4.444 0 8.518-3.703 9.444-5.555 1.111 2.037 5.223 6.111 10.556 6.111 5.333 0 9.444-3.518 10.555-5.555 1.112 2.222 6.223 5.555 11.112 5.555S70 71.722 71.11 69.5c1.296 2.222 5.111 5.556 10 5.556s8.148-3.89 8.889-6.111c.556 1.851 4 5.555 6.667 5.555 2.222 0 3.333-1.667 3.333-2.778v-3.889c-11.111.186-39.889 1.112-50.556 1.112Z" fill="#D0333D"/><path d="M49.444 68.945c-10.666 0-36.481-.926-49.444-1.112v3.334c.185.926 1.111 3.333 3.333 3.333 3.89 0 6.111-3.889 6.667-5.555.556 1.851 4.444 6.11 8.889 6.11 4.444 0 8.518-3.703 9.444-5.555 1.111 2.037 5.223 6.111 10.556 6.111 5.333 0 9.444-3.518 10.555-5.555 1.112 2.222 6.223 5.555 11.112 5.555S70 71.722 71.11 69.5c1.296 2.222 5.111 5.556 10 5.556s8.148-3.89 8.889-6.111c.556 1.851 4 5.555 6.667 5.555 2.222 0 3.333-1.667 3.333-2.778v-3.889c-11.111.186-39.889 1.112-50.556 1.112Z" fill="#000" fill-opacity=".2"/></g><defs><clipPath id="ara"><path fill="#fff" d="M0 0h100v100H0z"/></clipPath></defs></svg>