<?xml version="1.0" encoding="utf-8"?><svg fill="none" viewBox="0 0 100 100" width="100" height="100" xmlns="http://www.w3.org/2000/svg"><g clip-path="url(#cpa)"><path d="M67.002 42.235c1.41-5.224-2.316-6.291-4.6-5.725l-.164-7.226c5.208-.352 10.165 1.474 12.512 5.832 2.935 5.447.922 12.242-4.335 16.713-4.205 3.577-10.02 4.568-12.4 4.616l-2.11-8.373c3.23-.205 9.969-1.658 11.097-5.837Z" fill="#546DDB"/><path d="M67.002 42.235c1.41-5.224-2.316-6.291-4.6-5.725l-.164-7.226c5.208-.352 10.165 1.474 12.512 5.832 2.935 5.447.922 12.242-4.335 16.713-4.205 3.577-10.02 4.568-12.4 4.616l-2.11-8.373c3.23-.205 9.969-1.658 11.097-5.837Z" fill="#fff" fill-opacity=".2"/><path d="M57.486 18.154c-2.256 3.804-1.706 8.578 1.491 12.665L68 30c-6-2.5-7.5-5.49-6-8.5s5.773-2.96 8.584-5.115C75 13 75 6.5 71 3.5c.167 5.319-2.651 8.638-3.747 9.836-1.37 1.497-6.946.063-9.767 4.818Z" fill="#546DDB"/><path d="M57.486 18.154c-2.256 3.804-1.706 8.578 1.491 12.665L68 30c-6-2.5-7.5-5.49-6-8.5s5.773-2.96 8.584-5.115C75 13 75 6.5 71 3.5c.167 5.319-2.651 8.638-3.747 9.836-1.37 1.497-6.946.063-9.767 4.818Z" fill="#fff" fill-opacity=".2"/><path d="M35.5 41.5c-1.283 5.772 7.23 10.061 6 10.5L39 57.5C32.5 54 27.563 49.128 29.891 39 31.5 32 28.744 26.035 25 25.5c-3.5-.5-6.59 2-6.59 4.977 0 1.616.781 3.688 2.552 2.985C22.38 32.9 23.5 29.5 21 27c3 .5 4.5 2.362 4.5 5.5 0 4.11-5.647 7.918-9.353 3.466-4.354-5.231-1.405-11.288 1.878-13.923 3.349-2.69 8.429-3.03 11.866-.396C33.837 24.671 37.5 32.5 35.5 41.5Z" fill="#546DDB"/><path d="M35.5 41.5c-1.283 5.772 7.23 10.061 6 10.5L39 57.5C32.5 54 27.563 49.128 29.891 39 31.5 32 28.744 26.035 25 25.5c-3.5-.5-6.59 2-6.59 4.977 0 1.616.781 3.688 2.552 2.985C22.38 32.9 23.5 29.5 21 27c3 .5 4.5 2.362 4.5 5.5 0 4.11-5.647 7.918-9.353 3.466-4.354-5.231-1.405-11.288 1.878-13.923 3.349-2.69 8.429-3.03 11.866-.396C33.837 24.671 37.5 32.5 35.5 41.5Z" fill="#fff" fill-opacity=".2"/><path d="M67.002 39.735c1.41-5.224-2.316-6.291-4.6-5.725l-.164-7.226c5.208-.352 10.165 1.474 12.512 5.832 2.935 5.447.922 12.242-4.335 16.713-4.205 3.577-10.02 4.568-12.4 4.616l-2.11-8.373c3.23-.205 9.969-1.658 11.097-5.837Z" fill="#546DDB"/><path d="M67.002 39.735c1.41-5.224-2.316-6.291-4.6-5.725l-.164-7.226c5.208-.352 10.165 1.474 12.512 5.832 2.935 5.447.922 12.242-4.335 16.713-4.205 3.577-10.02 4.568-12.4 4.616l-2.11-8.373c3.23-.205 9.969-1.658 11.097-5.837Z" fill="#000" fill-opacity=".4"/><path d="M57.486 15.654c-2.256 3.804-1.706 8.578 1.491 12.665L68 27.5c-6-2.5-7.5-5.49-6-8.5s6.193-2.502 8.584-5.115c2.515-2.749 3.828-7.251.07-11.066.168 5.319-2.305 6.819-3.401 8.017-1.37 1.497-6.946.063-9.767 4.818Z" fill="#546DDB"/><path d="M57.486 15.654c-2.256 3.804-1.706 8.578 1.491 12.665L68 27.5c-6-2.5-7.5-5.49-6-8.5s6.193-2.502 8.584-5.115c2.515-2.749 3.828-7.251.07-11.066.168 5.319-2.305 6.819-3.401 8.017-1.37 1.497-6.946.063-9.767 4.818Z" fill="#000" fill-opacity=".4"/><path d="M35.5 39c-1.283 5.772 7.23 10.061 6 10.5L39 55c-6.5-3.5-11.437-8.372-9.109-18.5C31.5 29.5 28.744 23.535 25 23c-3.5-.5-6.59 2-6.59 4.977 0 1.616.781 3.688 2.552 2.985 1.417-.562.595-2.901.007-4 1.056.173 3.225 1.237 3.453 4.108.285 3.588-4.57 6.848-8.275 2.396-4.354-5.231-1.405-11.288 1.878-13.923 3.349-2.69 8.429-3.03 11.866-.396C33.837 22.171 37.5 30 35.5 39Z" fill="#546DDB"/><path d="M35.5 39c-1.283 5.772 7.23 10.061 6 10.5L39 55c-6.5-3.5-11.437-8.372-9.109-18.5C31.5 29.5 28.744 23.535 25 23c-3.5-.5-6.59 2-6.59 4.977 0 1.616.781 3.688 2.552 2.985 1.417-.562.595-2.901.007-4 1.056.173 3.225 1.237 3.453 4.108.285 3.588-4.57 6.848-8.275 2.396-4.354-5.231-1.405-11.288 1.878-13.923 3.349-2.69 8.429-3.03 11.866-.396C33.837 22.171 37.5 30 35.5 39Z" fill="#000" fill-opacity=".4"/><path d="M72 52.5c-6.079.864-11-1-21.5-6.5l-1 9.5c6.5 4 13.232 6.102 21 6 7.768-.103 24.995-4.902 22.5-21-.918-5.924-4-11-9.5-12.5-4.589-1.252-11.5-2.5-14 8 2.5-2.5 6.034-3.5 10.228-2.585 4.195.916 6.79 7.963 4.772 11.585-2.226 3.995-6.421 6.635-12.5 7.5Z" fill="#546DDB"/><path d="M72 52.5c-6.079.864-11-1-21.5-6.5l-1 9.5c6.5 4 13.232 6.102 21 6 7.768-.103 24.995-4.902 22.5-21-.918-5.924-4-11-9.5-12.5-4.589-1.252-11.5-2.5-14 8 2.5-2.5 6.034-3.5 10.228-2.585 4.195.916 6.79 7.963 4.772 11.585-2.226 3.995-6.421 6.635-12.5 7.5Z" fill="#fff" fill-opacity=".4"/><path d="M24.19 59.57C31.316 61.868 38 59 41 56.5l3.5 6.5c-5.19 2.387-14.945 6.041-24.079 2.266-9.648-3.989-12.496-9.602-14.39-13.336l-.034-.064C4.354 48.627 2.961 39.14 9.079 34.864c6.705-4.685 12.797-.677 14.748 2.459 2.292 3.687 1.681 10.14-2.667 11.622C17.014 50.358 14 45 14.5 43c1.458.716 4.33 3.312 5.022.97.866-2.93-2.265-4.821-5.006-4.094-2.741.727-3.91 4.5-2.307 8.51 1.604 4.01 7.175 9.636 11.982 11.185Z" fill="#546DDB"/><path d="M24.19 59.57C31.316 61.868 38 59 41 56.5l3.5 6.5c-5.19 2.387-14.945 6.041-24.079 2.266-9.648-3.989-12.496-9.602-14.39-13.336l-.034-.064C4.354 48.627 2.961 39.14 9.079 34.864c6.705-4.685 12.797-.677 14.748 2.459 2.292 3.687 1.681 10.14-2.667 11.622C17.014 50.358 14 45 14.5 43c1.458.716 4.33 3.312 5.022.97.866-2.93-2.265-4.821-5.006-4.094-2.741.727-3.91 4.5-2.307 8.51 1.604 4.01 7.175 9.636 11.982 11.185Z" fill="#fff" fill-opacity=".4"/><path d="M72 50.5c-6.079.864-11-1-21.5-6.5l-1 9.5c6.5 4 13.232 6.102 21 6 7.768-.103 24.995-4.902 22.5-21-.918-5.924-4-11-9.5-12.5-4.589-1.252-11.5-.5-14 10 3-4 6.034-5.5 10.228-4.585 4.195.916 6.79 7.963 4.772 11.585-2.226 3.995-6.421 6.635-12.5 7.5Z" fill="#546DDB"/><path d="M72 50.5c-6.079.864-11-1-21.5-6.5l-1 9.5c6.5 4 13.232 6.102 21 6 7.768-.103 24.995-4.902 22.5-21-.918-5.924-4-11-9.5-12.5-4.589-1.252-11.5-.5-14 10 3-4 6.034-5.5 10.228-4.585 4.195.916 6.79 7.963 4.772 11.585-2.226 3.995-6.421 6.635-12.5 7.5Z" fill="#000" fill-opacity=".2"/><path d="M24.19 57.57C31.316 59.868 39.5 56 42.5 53.5L46 60c-5.19 2.387-15.866 6.775-25 3-9.704-4.011-13.108-9.4-15.003-13.134-1.643-3.239-3.036-12.725 3.081-17.002 6.705-4.685 12.797-.677 14.748 2.459 2.292 3.687 1.681 10.14-2.667 11.622-4.145 1.413-6.37-2.425-6.875-4.196 1.457.717 4.545 1.563 5.238-.78.866-2.929-2.265-4.82-5.006-4.093-2.741.727-3.91 4.5-2.307 8.51 1.604 4.01 7.175 9.636 11.982 11.185Z" fill="#546DDB"/><path d="M24.19 57.57C31.316 59.868 39.5 56 42.5 53.5L46 60c-5.19 2.387-15.866 6.775-25 3-9.704-4.011-13.108-9.4-15.003-13.134-1.643-3.239-3.036-12.725 3.081-17.002 6.705-4.685 12.797-.677 14.748 2.459 2.292 3.687 1.681 10.14-2.667 11.622-4.145 1.413-6.37-2.425-6.875-4.196 1.457.717 4.545 1.563 5.238-.78.866-2.929-2.265-4.82-5.006-4.093-2.741.727-3.91 4.5-2.307 8.51 1.604 4.01 7.175 9.636 11.982 11.185Z" fill="#000" fill-opacity=".2"/><path d="M59.78 69.489c-6.93-5.818-8.85-15.422-8.162-17.526L59.78 48.5c.494 1.017 2.72 9.064 8.22 13 6.742 4.825 14.826 6.889 19.762 3.288 4.937-3.6 3.605-10.906 1.822-13.112-1.584-1.958-5.063-2.603-5.97.496-.725 2.478 2.73 1.734 4.586 2.028-.7 2.3-4.513 5.094-8.084 2.554-4.463-3.175-3.531-12.99 5.273-13.593 10.346-.71 14.534 9.299 14.408 16.363C99.668 66.733 95.112 73.956 88.69 76c-7.374 2.348-19.137 1.693-28.91-6.511Z" fill="#546DDB"/><path d="M59.78 69.489c-6.93-5.818-8.85-15.422-8.162-17.526L59.78 48.5c.494 1.017 2.72 9.064 8.22 13 6.742 4.825 14.826 6.889 19.762 3.288 4.937-3.6 3.605-10.906 1.822-13.112-1.584-1.958-5.063-2.603-5.97.496-.725 2.478 2.73 1.734 4.586 2.028-.7 2.3-4.513 5.094-8.084 2.554-4.463-3.175-3.531-12.99 5.273-13.593 10.346-.71 14.534 9.299 14.408 16.363C99.668 66.733 95.112 73.956 88.69 76c-7.374 2.348-19.137 1.693-28.91-6.511Z" fill="#fff" fill-opacity=".6"/><path d="M35.5 57c4-1.123 3.847-7.73 3.93-9.487 2.77-1.952 10.054.25 9.985 5.907C49.328 60.492 44 66.24 36.5 67.5c-7 1.177-12.182-2.582-15.326-4.238-4.622-2.433-8.08-1.462-11.107 1.047-3.027 2.508-3.124 5.852-2.393 7.72.732 1.867.171 1.68 2.393 1.471 2.221-.21 4.933-1.971 4.933-4 0-2.82-2.647-4.553-4.5-5 .763-.974 2.892-.752 7.185.364 5.367 1.395 7.01 7.981 4.883 11.48-2.127 3.5-9.212 6.319-14.44 4.678-5.23-1.64-10.276-7.064-7.079-17.083C4.027 54.611 14.11 50.46 21.174 52 28.24 53.54 31.5 58.123 35.5 57Z" fill="#546DDB"/><path d="M35.5 57c4-1.123 3.847-7.73 3.93-9.487 2.77-1.952 10.054.25 9.985 5.907C49.328 60.492 44 66.24 36.5 67.5c-7 1.177-12.182-2.582-15.326-4.238-4.622-2.433-8.08-1.462-11.107 1.047-3.027 2.508-3.124 5.852-2.393 7.72.732 1.867.171 1.68 2.393 1.471 2.221-.21 4.933-1.971 4.933-4 0-2.82-2.647-4.553-4.5-5 .763-.974 2.892-.752 7.185.364 5.367 1.395 7.01 7.981 4.883 11.48-2.127 3.5-9.212 6.319-14.44 4.678-5.23-1.64-10.276-7.064-7.079-17.083C4.027 54.611 14.11 50.46 21.174 52 28.24 53.54 31.5 58.123 35.5 57Z" fill="#fff" fill-opacity=".6"/><path d="M59.78 67.489c-6.93-5.818-8.85-15.422-8.162-17.526L59.78 46.5c.494 1.017 2.72 9.064 8.22 13 6.742 4.825 14.826 6.889 19.762 3.288 4.937-3.6 3.605-10.906 1.822-13.112-1.584-1.958-5.063-2.603-5.97.496-.725 2.478 2.804 3.686 4.66 3.98-1.232 1.259-4.587 3.142-8.157.602-4.464-3.175-3.532-12.99 5.272-13.593 10.346-.71 14.534 9.299 14.408 16.363C99.668 64.733 95.112 71.956 88.69 74c-7.374 2.348-19.137 1.693-28.91-6.511ZM35 53c4-1.123 4.347-5.73 4.43-7.487 2.77-1.952 10.054.25 9.985 5.907C49.328 58.492 45.782 63.44 36.5 65c-7 1.177-12.182-2.083-15.326-3.738-4.622-2.433-8.08-1.462-11.107 1.047-3.027 2.508-3.124 5.852-2.393 7.72.732 1.867 3.117 2.976 5.338 2.767 2.221-.21 4.364-2.175 3.47-4.62-.714-1.954-4.6-3.337-6.452-3.784.763-.974 3.362-2.644 7.655-1.528 5.367 1.395 7.01 7.981 4.883 11.48-2.127 3.5-9.212 6.319-14.44 4.678-5.23-1.64-10.276-7.064-7.079-17.083C4.027 52.611 14.11 48.46 21.174 50 28.24 51.54 31 54.123 35 53Z" fill="#546DDB"/><path d="M36.049 43.14C38.801 46.017 39.941 48.334 39 51c1.842 1.568 6.403 5.352 13.364 4.975 6.961-.376 8.545-4.233 8.466-6.114-.51-3.136-.533-5.342 0-8.969.534-3.626 1.496-5.493 1.732-10.785.235-5.291-.972-10.702-3.794-17.758C55.946 5.294 47.733-1.884 37.342.45 27.578 2.642 23.97 12.84 25.264 24.715 26.558 36.592 33.297 40.26 36.05 43.14Z" fill="#546DDB"/><path d="M34.774 43.138c3.807 2.879 4.028 5.697 2.726 8.362 2.55 1.568 2.217 4.85 11.85 4.474 9.632-.376 11.823-4.233 11.715-6.115-.705-3.135-.738-5.341 0-8.968C61.803 37.265 66.04 36.5 68 30c1.53-5.076 2.117-12.203-1.789-19.258C62.306 3.687 50.941-1.884 36.563.45 23.053 2.64 18.31 14.5 19.85 24.714c1.79 11.877 11.116 15.545 14.924 18.424Z" fill="#546DDB"/><path d="m40.916 12.85-7.422-.238-1.739-3.06m9.161 3.298 4.577 3.068 1.846 3.607m-6.423-6.675-2.953 2.284m-.446 3.492.446-3.492m-6.208-5.583 3.55-.7m-3.55.7-2.946-.553m10.922-2.155 6.438.999 1.753-2.616m-8.191 1.617 3.176-4.031m-3.176 4.03-4.427 2.009m0 0 2.235 1.26m-8.73-1.113-1.085-2.623-1.517-1.102m2.602 3.725-1.322 4.8-1.423 1.415.977 2.076m10.922-2.155-3.607 1.847" stroke="#546DDB" stroke-width=".668"/><path d="m40.916 12.85-7.422-.238-1.739-3.06m9.161 3.298 4.577 3.068 1.846 3.607m-6.423-6.675-2.953 2.284m-.446 3.492.446-3.492m-6.208-5.583 3.55-.7m-3.55.7-2.946-.553m10.922-2.155 6.438.999 1.753-2.616m-8.191 1.617 3.176-4.031m-3.176 4.03-4.427 2.009m0 0 2.235 1.26m-8.73-1.113-1.085-2.623-1.517-1.102m2.602 3.725-1.322 4.8-1.423 1.415.977 2.076m10.922-2.155-3.607 1.847" stroke="#fff" stroke-opacity=".4" stroke-width=".668"/><circle cx="32" cy="6" r="1.5" fill="#2FC4A7"/><circle cx="32" cy="6" r="1.5" fill="#fff" fill-opacity=".4"/><circle cx="22.5" cy="18.5" r="1.5" fill="#2FC4A7"/><circle cx="22.5" cy="18.5" r="1.5" fill="#fff" fill-opacity=".4"/><circle cx="27" cy="23" r="1" fill="#2FC4A7"/><circle cx="27" cy="23" r="1" fill="#fff" fill-opacity=".4"/><circle cx="63.12" cy="11.12" r="1.5" transform="rotate(-42.616 63.12 11.12)" fill="#2FC4A7"/><circle cx="63.12" cy="11.12" r="1.5" transform="rotate(-42.616 63.12 11.12)" fill="#fff" fill-opacity=".4"/><circle cx="65.413" cy="19.413" r="1" transform="rotate(-42.616 65.413 19.413)" fill="#2FC4A7"/><circle cx="65.413" cy="19.413" r="1" transform="rotate(-42.616 65.413 19.413)" fill="#fff" fill-opacity=".4"/><path d="M24.81 68.378c2.206-5.408 6.313-7.316 10.406-10.099C39.834 54.826 43.12 52.394 47 55c3.881 2.606 3.143 4.947-.989 8.709-4.132 3.761-10.689 4.582-11.365 9.06-.605 4 6.617 9.978 2.35 17.169-2.864 4.827-7.83 7.604-13.747 5.4C17.824 93.315 16.999 87 21 83c.303 5.016.574 6.875 2.945 7.36 2.964.608 5.576-1.814 5.712-5.279.203-5.148-7.602-9.944-4.846-16.703Z" fill="#546DDB"/><path d="M24.81 68.378c2.206-5.408 6.313-7.316 10.406-10.099C39.834 54.826 43.12 52.394 47 55c3.881 2.606 3.143 4.947-.989 8.709-4.132 3.761-10.689 4.582-11.365 9.06-.605 4 6.617 9.978 2.35 17.169-2.864 4.827-7.83 7.604-13.747 5.4C17.824 93.315 16.999 87 21 83c.303 5.016.574 6.875 2.945 7.36 2.964.608 5.576-1.814 5.712-5.279.203-5.148-7.602-9.944-4.846-16.703Z" fill="#fff" fill-opacity=".6"/><path d="M68.168 59.067c-2.962-6.364-8.651-10.328-11.652-8.183-4.386 1.795-5.492 6.164-3.136 8.504 2.357 2.34 6.423 5.693 3.931 9.711-2.491 4.018-11.726 7.49-11.628 16.813.097 9.322 8.92 13.299 13.678 13.922 4.757.623 9.64-1.096 13.347-4.544 3.416-3.178 6.6-10.353 2.792-14.79-2.808-3.271-9.5-2.5-11.5-1 3.334.916 6.886 3.744 5.52 7.582-1.705 4.798-4.866 5.107-8.237 4.835-3.372-.273-6.79-3.798-5.438-7.642 1.65-4.691 5.641-5.377 10.082-9.013 1.948-1.594 5.555-9.074 2.24-16.195Z" fill="#546DDB"/><path d="M68.168 59.067c-2.962-6.364-8.651-10.328-11.652-8.183-4.386 1.795-5.492 6.164-3.136 8.504 2.357 2.34 6.423 5.693 3.931 9.711-2.491 4.018-11.726 7.49-11.628 16.813.097 9.322 8.92 13.299 13.678 13.922 4.757.623 9.64-1.096 13.347-4.544 3.416-3.178 6.6-10.353 2.792-14.79-2.808-3.271-9.5-2.5-11.5-1 3.334.916 6.886 3.744 5.52 7.582-1.705 4.798-4.866 5.107-8.237 4.835-3.372-.273-6.79-3.798-5.438-7.642 1.65-4.691 5.641-5.377 10.082-9.013 1.948-1.594 5.555-9.074 2.24-16.195Z" fill="#fff" fill-opacity=".6"/><path d="M26.811 67.878c2.205-5.408 6.312-7.316 10.406-10.099C41.834 54.326 44.5 52.5 48.5 54.5c4.181 2.09 3.643 4.947-.489 8.709-4.132 3.761-10.688 4.582-11.365 9.06-.605 4 6.617 9.978 2.35 17.169-2.864 4.827-7.83 7.604-13.747 5.4-5.425-2.022-6.8-7.492-4.105-12.39.302 5.016 2.43 6.927 4.801 7.413 2.964.607 5.576-1.815 5.712-5.28.203-5.148-7.602-9.944-4.846-16.703Z" fill="#546DDB"/><path d="M66.668 59.067c-2.962-6.364-8.651-10.328-11.652-8.183-4.386 1.795-5.492 6.164-3.136 8.504 2.357 2.34 6.423 5.693 3.931 9.711-2.491 4.018-11.726 7.49-11.628 16.813.097 9.322 8.92 13.299 13.678 13.922 4.757.623 9.64-1.096 13.347-4.544 3.416-3.178 6.016-10.095 2.208-14.532-2.808-3.271-9.182-2.165-10.52-.76 3.333.916 6.49 3.246 5.125 7.084-1.706 4.798-4.867 5.107-8.238 4.835-3.372-.273-6.79-3.798-5.438-7.642 1.65-4.691 5.641-5.377 10.082-9.013 1.948-1.594 5.555-9.074 2.24-16.195Z" fill="#546DDB"/><path d="M61 22c-1.457-3.525-4.435-9.354-8.582-14.057 4.589 3.952 7.2 7.48 8.964 11.557 1.84 4.255 2.532 11.231 2.228 14.29-.616-4.715-1.578-9.293-2.61-11.79Z" fill="#CE4317"/><path d="M61 22c-1.457-3.525-4.435-9.354-8.582-14.057 4.589 3.952 7.2 7.48 8.964 11.557 1.84 4.255 2.532 11.231 2.228 14.29-.616-4.715-1.578-9.293-2.61-11.79Z" fill="#fff" fill-opacity=".3"/><path d="M58.1 28.945c2.237-1.448 6.765-4.733 9.095-8.51-1.63 4.099-4.735 6.968-7.299 8.708-2.676 1.817-6.545 2.392-8.951 2.335 3.387-.82 5.57-1.507 7.155-2.533Z" fill="#CE4317"/><path d="M58.1 28.945c2.237-1.448 6.765-4.733 9.095-8.51-1.63 4.099-4.735 6.968-7.299 8.708-2.676 1.817-6.545 2.392-8.951 2.335 3.387-.82 5.57-1.507 7.155-2.533Z" fill="#fff" fill-opacity=".3"/><circle cx="34.148" cy="38.302" r="4.39" transform="rotate(3.472 34.148 38.302)" fill="#D0333D"/><ellipse cx="61.788" cy="36.02" rx="3.658" ry="4.024" transform="rotate(3.998 61.788 36.02)" fill="#D0333D"/><circle cx="34.771" cy="37.863" r="4.104" transform="rotate(3.472 34.771 37.863)" fill="#FEFEFE"/><ellipse cx="61.164" cy="35.714" rx="3.42" ry="3.762" transform="rotate(3.998 61.164 35.714)" fill="#FEFEFE"/><ellipse cx="35.101" cy="38.095" rx="1.628" ry="1.807" transform="rotate(3.472 35.101 38.095)" fill="#D0333D"/><ellipse cx="35.101" cy="38.095" rx="1.628" ry="1.807" transform="rotate(3.472 35.101 38.095)" fill="#000" fill-opacity=".4"/><circle cx="60.585" cy="36.141" r="1.425" transform="rotate(3.998 60.585 36.14)" fill="#D0333D"/><circle cx="60.585" cy="36.141" r="1.425" transform="rotate(3.998 60.585 36.14)" fill="#000" fill-opacity=".4"/><path d="M39.98 39.01c-1.243 2.425-2.688-.083-5.263-1.402-2.574-1.32-4.787-2.113-4.04-3.57.747-1.458 4.046-2.184 6.62-.864 2.575 1.32 3.658 3.933 2.683 5.837Z" fill="#546DDB"/><path d="M39.98 39.01c-1.243 2.425-2.688-.083-5.263-1.402-2.574-1.32-4.787-2.113-4.04-3.57.747-1.458 4.046-2.184 6.62-.864 2.575 1.32 3.658 3.933 2.683 5.837Z" fill="#fff" fill-opacity=".2"/><path d="M56.692 36.684c1.303 2.043 2.318-.264 4.422-1.606 2.105-1.342 3.945-2.197 3.162-3.425-.783-1.228-3.707-1.632-5.811-.29-2.105 1.343-2.797 3.717-1.773 5.321Z" fill="#546DDB"/><path d="M56.692 36.684c1.303 2.043 2.318-.264 4.422-1.606 2.105-1.342 3.945-2.197 3.162-3.425-.783-1.228-3.707-1.632-5.811-.29-2.105 1.343-2.797 3.717-1.773 5.321Z" fill="#fff" fill-opacity=".2"/><ellipse cx="50.64" cy="46" rx="6.521" ry="7.173" transform="rotate(13.54 50.64 46)" fill="#D0333D"/><ellipse cx="50.64" cy="46" rx="6.521" ry="7.173" transform="rotate(13.54 50.64 46)" fill="#000" fill-opacity=".6"/><path fill-rule="evenodd" clip-rule="evenodd" d="M57.177 46.277 54.5 46.5l2.128 2.128a7.929 7.929 0 0 0 .55-2.351Zm-2.713 5.337L53 50.258l-.252 2.397a6.822 6.822 0 0 0 1.716-1.041Zm-5.862 1.261v-2.617l-2.499 1.108a6.051 6.051 0 0 0 2.499 1.51Zm-4.364-5.022L46.5 46.5l-2.383-.939a7.634 7.634 0 0 0 .12 2.292Zm.591-4.887 2.671.534-1.182-2.66a7.517 7.517 0 0 0-1.489 2.126Zm4.347-3.85L50.5 41.5l.789-2.628a6.08 6.08 0 0 0-2.113.244Zm5.613 1.162L53.5 43.5l3.096-.768a6.656 6.656 0 0 0-1.807-2.454Z" fill="#898989"/><path fill-rule="evenodd" clip-rule="evenodd" d="M57.177 46.277 54.5 46.5l2.128 2.128a7.929 7.929 0 0 0 .55-2.351Zm-2.713 5.337L53 50.258l-.252 2.397a6.822 6.822 0 0 0 1.716-1.041Zm-5.862 1.261v-2.617l-2.499 1.108a6.051 6.051 0 0 0 2.499 1.51Zm-4.364-5.022L46.5 46.5l-2.383-.939a7.634 7.634 0 0 0 .12 2.292Zm.591-4.887 2.671.534-1.182-2.66a7.517 7.517 0 0 0-1.489 2.126Zm4.347-3.85L50.5 41.5l.789-2.628a6.08 6.08 0 0 0-2.113.244Zm5.613 1.162L53.5 43.5l3.096-.768a6.656 6.656 0 0 0-1.807-2.454Z" fill="#fff" fill-opacity=".6"/><path fill-rule="evenodd" clip-rule="evenodd" d="m51.076 38.862.809 4.755 2.646-3.545a5.986 5.986 0 0 0-3.455-1.21Zm-2.068.306.188 4.472-3.078-2.593a6.878 6.878 0 0 1 2.89-1.879Zm-4.071 3.578a7.863 7.863 0 0 0-.745 2.257l3.279.234-2.534-2.49Zm-.564 5.653a6.87 6.87 0 0 0 1.713 2.95l2.042-3.271-3.755.321Zm4.658 4.59a6.05 6.05 0 0 0 3.366-.2l-1.58-4.735-1.786 4.936Zm5.702-1.61a7.469 7.469 0 0 0 1.618-2.14l-2.846-1.208 1.228 3.349Zm2.466-5.812a7.447 7.447 0 0 0-.502-2.59l-2.43 1.885 2.932.705Z" fill="#FEFEFE"/><circle cx="51" cy="81.5" r="1.5" fill="#2FC4A7"/><circle cx="51" cy="81.5" r="1.5" fill="#fff" fill-opacity=".4"/><circle cx="32" cy="66" r="1" fill="#2FC4A7"/><circle cx="32" cy="66" r="1" fill="#fff" fill-opacity=".4"/><circle cx="71" cy="92" r="1" fill="#2FC4A7"/><circle cx="71" cy="92" r="1" fill="#fff" fill-opacity=".4"/><circle cx="76" cy="67" r="1" fill="#2FC4A7"/><circle cx="76" cy="67" r="1" fill="#fff" fill-opacity=".4"/><circle cx="89.5" cy="44.5" r="1.5" fill="#2FC4A7"/><circle cx="89.5" cy="44.5" r="1.5" fill="#fff" fill-opacity=".4"/><circle cx="20.5" cy="57.5" r="1.5" fill="#2FC4A7"/><circle cx="20.5" cy="57.5" r="1.5" fill="#fff" fill-opacity=".4"/><circle cx="40" cy="62" r="2" fill="#2FC4A7"/><circle cx="40" cy="62" r="2" fill="#fff" fill-opacity=".4"/><circle cx="48" cy="85" r="1" fill="#2FC4A7"/><circle cx="48" cy="85" r="1" fill="#fff" fill-opacity=".4"/><circle cx="5" cy="75" r="1" fill="#2FC4A7"/><circle cx="5" cy="75" r="1" fill="#fff" fill-opacity=".4"/><circle cx="67.5" cy="52.5" r="1.5" fill="#2FC4A7"/><circle cx="67.5" cy="52.5" r="1.5" fill="#fff" fill-opacity=".2"/><circle cx="22" cy="43" r="1" fill="#2FC4A7"/><circle cx="22" cy="43" r="1" fill="#fff" fill-opacity=".2"/><circle cx="73" cy="38" r="1" fill="#2FC4A7"/></g><defs><clipPath id="cpa"><path fill="#fff" d="M0 0h100v100H0z"/></clipPath></defs></svg>