<svg xmlns="http://www.w3.org/2000/svg" viewBox="0 0 64 64" role="img" aria-label="360Dungeon star fragment icon">
  <defs>
    <linearGradient id="bg" x1="10" y1="6" x2="54" y2="58" gradientUnits="userSpaceOnUse">
      <stop offset="0" stop-color="#11141b"/>
      <stop offset="1" stop-color="#1b2332"/>
    </linearGradient>
    <radialGradient id="glow" cx="0" cy="0" r="1" gradientTransform="translate(24 18) rotate(39) scale(28 28)" gradientUnits="userSpaceOnUse">
      <stop offset="0" stop-color="#72d6ff" stop-opacity=".28"/>
      <stop offset="1" stop-color="#72d6ff" stop-opacity="0"/>
    </radialGradient>
    <linearGradient id="star" x1="18" y1="12" x2="43" y2="39" gradientUnits="userSpaceOnUse">
      <stop offset="0" stop-color="#fbfdff"/>
      <stop offset="1" stop-color="#d0d9e7"/>
    </linearGradient>
  </defs>
  <rect width="64" height="64" rx="16" fill="url(#bg)"/>
  <circle cx="24" cy="18" r="22" fill="url(#glow)"/>
  <g transform="translate(8.9 9.8)" fill="#05070d" opacity=".34">
    <polygon points="21.5,21.5 25,16 28.5,21.5 34,25 28.5,28.5 25,34 21.5,28.5 16,25"/>
    <polygon points="25,16 25,7 31.5,18.5 28.5,21.5"/>
    <polygon points="25,16 25,7 18.5,18.5 21.5,21.5"/>
    <polygon points="34,25 43,25 31.5,18.5 28.5,21.5"/>
    <polygon points="34,25 43,25 31.5,31.5 28.5,28.5"/>
    <polygon points="25,34 25,43 31.5,31.5 28.5,28.5"/>
    <polygon points="25,34 25,43 18.5,31.5 21.5,28.5"/>
    <polygon points="16,25 7,25 18.5,31.5 21.5,28.5"/>
    <polygon points="16,25 7,25 18.5,18.5 21.5,21.5"/>
  </g>
  <g transform="translate(7.4 8.3)" fill="url(#star)">
    <polygon points="21.5,21.5 25,16 28.5,21.5 34,25 28.5,28.5 25,34 21.5,28.5 16,25"/>
    <polygon points="25,16 25,7 31.5,18.5 28.5,21.5"/>
    <polygon points="25,16 25,7 18.5,18.5 21.5,21.5"/>
    <polygon points="34,25 43,25 31.5,18.5 28.5,21.5"/>
    <polygon points="34,25 43,25 31.5,31.5 28.5,28.5"/>
    <polygon points="25,34 25,43 31.5,31.5 28.5,28.5"/>
    <polygon points="25,34 25,43 18.5,31.5 21.5,28.5"/>
    <polygon points="16,25 7,25 18.5,31.5 21.5,28.5"/>
    <polygon points="16,25 7,25 18.5,18.5 21.5,21.5"/>
  </g>
</svg>
